<?xml version="1.0" encoding="UTF-8"?><svg id="Layer_2" xmlns="http://www.w3.org/2000/svg" xmlns:xlink="http://www.w3.org/1999/xlink" viewBox="0 0 8102 4000"><defs><style>.cls-1{fill:url(#linear-gradient-2);}.cls-2{fill:#fff;}.cls-3{fill:#4f124c;}.cls-4{opacity:.6;}.cls-5{fill:#f9b923;}.cls-6{opacity:.2;}.cls-7{fill:#6fcbdc;}.cls-8{fill:#eb4646;}.cls-9{fill:#6629a5;}.cls-10{opacity:.3;}.cls-11{fill:#49227c;}.cls-12{fill:#6b184e;}.cls-13{fill:#1297e0;}.cls-14{fill:#b8529e;}.cls-15{fill:#ed2e7a;}.cls-16{clip-path:url(#clippath);}.cls-17{fill:none;}.cls-18{opacity:.42;}.cls-19{fill:url(#linear-gradient);}.cls-20{fill:#f99b28;}.cls-21{fill:#4e174c;}</style><clipPath id="clippath"><path class="cls-17" d="M2933.97,2631.79c0,395.2-257.34,730.27-613.57,846.78-64.06,20.97-131.28,34.88-200.76,40.74-25.19,2.16-50.67,3.26-76.44,3.26-37.33,0-74.09-2.3-110.22-6.77-63-7.77-123.99-22.12-182.2-42.37-63.43-22.02-123.61-51.01-179.6-86.08-134.07-83.88-244.19-202.49-317.85-343.18-30.57-58.44-54.85-120.68-71.88-185.79-3.98-15.07-7.53-30.28-10.7-45.63-9.36-45.39-15.26-91.99-17.37-139.59-.1-1.44-.19-2.83-.24-4.27-.53-12.28-.77-24.66-.77-37.09,0-35.12,2.01-69.77,6-103.84,1.58-13.77,3.5-27.45,5.76-40.98,5.47-33.78,12.91-66.94,22.12-99.38,9.5-33.4,20.92-66.07,34.12-97.74,3.6-8.73,7.39-17.37,11.28-25.96,15.64-34.45,33.4-67.66,53.12-99.57,62.67-101.53,145.2-189.49,242.13-258.59,31.43-22.36,64.4-42.75,98.66-60.99,40.21-21.4,82.29-39.78,125.91-54.89,14.78-5.13,29.8-9.88,44.96-14.2,33.16-9.6,67.18-17.27,101.82-22.94,22.27-3.65,44.77-6.48,67.56-8.4,25.48-2.26,51.29-3.36,77.4-3.36,1.92,0,3.84,0,5.76,.05,6.91,.05,13.82,.14,20.68,.34,37.43,1.1,74.28,4.51,110.41,10.08,8.59,1.3,17.13,2.74,25.62,4.32,203.31,37.48,382.39,144,512.13,294.29,24.14,27.97,46.54,57.44,67.08,88.24,19.19,28.74,36.71,58.68,52.49,89.63,25.91,50.86,47.07,104.56,62.91,160.46,21.93,77.4,33.68,159.02,33.68,243.42Z"/></clipPath><linearGradient id="linear-gradient" x1="6838.57" y1="2844.32" x2="4168.98" y2="1177.35" gradientTransform="translate(0 3992) scale(1 -1)" gradientUnits="userSpaceOnUse"><stop offset="0" stop-color="#4f124c"/><stop offset=".55" stop-color="#6629a5"/><stop offset="1" stop-color="aqua"/></linearGradient><linearGradient id="linear-gradient-2" x1="6840.88" y1="2794.31" x2="4057.65" y2="1135.25" gradientTransform="translate(0 3992) scale(1 -1)" gradientUnits="userSpaceOnUse"><stop offset="0" stop-color="#4f124c"/><stop offset=".42" stop-color="#c835f8"/><stop offset="1" stop-color="#1a85f8"/></linearGradient></defs><g id="Layer_1-2"><g><rect class="cls-9" width="7978" height="4000"/><g><circle class="cls-2" cx="3135.33" cy="1376.99" r="48.69" transform="translate(1273.9 4251.26) rotate(-80.78)"/><circle class="cls-2" cx="3192.83" cy="2079.25" r="22.5"/><circle class="cls-2" cx="3510.31" cy="851.14" r="22.5"/><circle class="cls-2" cx="2803.85" cy="318.55" r="22.5" transform="translate(2040.28 3035.18) rotate(-80.78)"/><circle class="cls-2" cx="438.17" cy="2281.17" r="33.64" transform="translate(-688.24 249.69) rotate(-18.13)"/><circle class="cls-2" cx="852.54" cy="1680.8" r="22.5" transform="translate(-840.37 2509.03) rotate(-89.17)"/><circle class="cls-2" cx="600.45" cy="996.34" r="22.5" transform="translate(-479.21 1429.44) rotate(-80.78)"/><circle class="cls-2" cx="1050.47" cy="467.4" r="22.5" transform="translate(420.84 1429.44) rotate(-80.78)"/><circle class="cls-2" cx="3657.81" cy="2539.78" r="22.5" transform="translate(-724.55 3330.34) rotate(-45)"/><circle class="cls-2" cx="3500.31" cy="3373.27" r="22.5" transform="translate(-1024.45 1596.29) rotate(-22.5)"/><circle class="cls-2" cx="1777.63" cy="823.41" r="22.5" transform="translate(-61.58 1498.15) rotate(-45)"/><circle class="cls-2" cx="2713.71" cy="3479.31" r="22.5"/><circle class="cls-2" cx="1757.63" cy="3747.09" r="22.5"/><circle class="cls-2" cx="1130.99" cy="3418.78" r="22.5"/><circle class="cls-2" cx="492.96" cy="3150.77" r="22.5" transform="translate(-2696.09 3132.67) rotate(-80.78)"/></g><g><circle class="cls-2" cx="6229.41" cy="3242.41" r="53.17" transform="translate(1265.75 8210.4) rotate(-72.52)"/><circle class="cls-2" cx="5461.49" cy="3194.37" r="24.57"/><circle class="cls-2" cx="6738.84" cy="3730.14" r="24.57"/><circle class="cls-2" cx="7425.21" cy="3050.26" r="24.57" transform="translate(2285.68 9216.55) rotate(-72.52)"/><circle class="cls-2" cx="5675.47" cy="185.89" r="36.73" transform="translate(52.19 975.98) rotate(-9.87)"/><circle class="cls-2" cx="6259.25" cy="727.86" r="24.57" transform="translate(4552.1 6793.63) rotate(-80.91)"/><circle class="cls-2" cx="7038.45" cy="562.83" r="24.57" transform="translate(4387.68 7107.29) rotate(-72.52)"/><circle class="cls-2" cx="4890.87" cy="3624.6" r="24.57" transform="translate(-1196.65 3645.58) rotate(-36.74)"/><circle class="cls-2" cx="4014.88" cy="3323.64" r="24.57" transform="translate(-694.18 1089.67) rotate(-14.24)"/><circle class="cls-2" cx="7040.65" cy="1862.08" r="24.57" transform="translate(284.68 4581.43) rotate(-36.74)"/><circle class="cls-2" cx="4023.69" cy="2456.96" r="24.57"/><circle class="cls-2" cx="4337.42" cy="756.1" r="24.57" transform="translate(2965.98 4939.89) rotate(-81.74)"/><circle class="cls-2" cx="4727.14" cy="108.67" r="24.57" transform="translate(3203.74 4584.93) rotate(-72.52)"/></g><circle class="cls-2" cx="7481.18" cy="1815.78" r="48.08" transform="translate(4490.49 8909.5) rotate(-80.78)"/><g><g><path class="cls-20" d="M2631.52,1781.3c-.18,38.51-22.51,100.23-74.06,130.98-16.63,9.93-36.31,16.63-59.29,18.25-86.61,6.2-112.39-30.64-118.98-61.75-.31-1.52-.6-3.01-.84-4.5-3.08-19.53,.86-35.71,.86-35.71,0,0,18.3-56.21,87.58-65.36,41.62-5.49,59.66,11.19,80.18,14.33,13.62,2.07,28.37-1.83,51.84-22.17,12.18-10.56,21.31-9.67,26.74-1.52,3.95,5.88,6.01,15.55,5.96,27.45Z"/><path class="cls-5" d="M2631.52,1781.3c-.18,38.51-22.51,100.23-74.06,130.98-17.28-13.62-29.44-35.5-36.89-60.63-8.99-30.38,11.06-58.22,26.4-74.11,13.62,2.07,28.37-1.83,51.84-22.17,12.18-10.56,21.31-9.67,26.74-1.52,3.95,5.88,6.01,15.55,5.96,27.45Z"/><g class="cls-6"><path class="cls-12" d="M2630.84,1781.3c-.24,50.95-39.21,142.5-133.35,149.22-86.61,6.2-112.39-30.64-118.98-61.75-.26-1.23-.5-2.43-.68-3.63,.26,.13,.52,.26,.81,.39,1.36,.73,2.69,1.52,4,2.07,3.24,1.39,61.26-13.06,101.12-11.34,32.35,1.39,32.3,31.43,83.98,7.6,45.84-21.14,57.29-70.32,63.1-82.56Z"/></g><path class="cls-17" d="M2574.11,1872.23c7.08-2.41,13.12-6.2,21.41-10.98l-21.41,10.98Z"/><g class="cls-4"><path class="cls-2" d="M2624.88,1753.85c-13.59,27.69-44,46.82-67.71,45.96-13.2-.47-25.1-4.31-37.41-7.9,.26,.78,.39,1.54,.39,2.35,0,8.84-15.89,16-35.53,16s-35.5-7.16-35.5-16c0-.76,.13-1.52,.37-2.27-2.72,.99-5.49,2.14-8.37,3.45-14.46,6.59-58.72,24.37-62.61,73.33-4.55-21.46,.03-40.21,.03-40.21,0,0,18.3-56.21,87.58-65.36,69.28-9.15,73.2,43.14,132.02-7.84,12.18-10.56,21.31-9.67,26.74-1.52Z"/></g><path class="cls-17" d="M2611.21,1851.66c-28.55-39.33-84.01-52.65-120.26-82.79l120.26,82.79Z"/><path class="cls-3" d="M2479.01,1945.67c-44.04,0-76.36-11.87-96.23-35.4-29.97-35.48-18.78-83.12-18.29-85.13l.3-1.04c.86-2.65,22.01-64.99,99.44-75.21,31.99-4.22,52.52,3.52,67.51,9.17,19.72,7.44,28.73,10.83,56.93-13.61,18.51-16.04,32.48-11.6,39.16-7.53,20.64,12.58,20.23,49.07,12.97,79.02-13.54,55.79-58.92,123.06-142.27,129.01-6.74,.48-13.24,.72-19.51,.72Zm-86.54-113.14c-.95,4.73-6.53,36.85,12.54,59.24,16.44,19.3,47.2,27.5,91.45,24.33,73.26-5.23,102.41-65.59,111.55-91.3,11.65-32.78,8.74-56.55,5.28-62.4-1.08,.47-2.95,1.53-5.68,3.89-38.35,33.24-58.98,29.03-86.07,18.82-14.13-5.33-28.73-10.84-53.53-7.56-55.99,7.39-73.4,49.22-75.54,54.99Z"/></g><g><path class="cls-14" d="M2933.97,2631.79c0,395.2-257.34,730.27-613.57,846.78-64.06,20.97-131.28,34.88-200.76,40.74-25.19,2.16-50.67,3.26-76.44,3.26-37.33,0-74.09-2.3-110.22-6.77-63-7.77-123.99-22.12-182.2-42.37-63.43-22.02-123.61-51.01-179.6-86.08-134.07-83.88-244.19-202.49-317.85-343.18-30.57-58.44-54.85-120.68-71.88-185.79-3.98-15.07-7.53-30.28-10.7-45.63-9.36-45.39-15.26-91.99-17.37-139.59-.1-1.44-.19-2.83-.24-4.27-.53-12.28-.77-24.66-.77-37.09,0-35.12,2.01-69.77,6-103.84,1.58-13.77,3.5-27.45,5.76-40.98,5.47-33.78,12.91-66.94,22.12-99.38,9.5-33.4,20.92-66.07,34.12-97.74,3.6-8.73,7.39-17.37,11.28-25.96,15.64-34.45,33.4-67.66,53.12-99.57,62.67-101.53,145.2-189.49,242.13-258.59,31.43-22.36,64.4-42.75,98.66-60.99,40.21-21.4,82.29-39.78,125.91-54.89,14.78-5.13,29.8-9.88,44.96-14.2,33.16-9.6,67.18-17.27,101.82-22.94,22.27-3.65,44.77-6.48,67.56-8.4,25.48-2.26,51.29-3.36,77.4-3.36,1.92,0,3.84,0,5.76,.05,6.91,.05,13.82,.14,20.68,.34,37.43,1.1,74.28,4.51,110.41,10.08,8.59,1.3,17.13,2.74,25.62,4.32,203.31,37.48,382.39,144,512.13,294.29,24.14,27.97,46.54,57.44,67.08,88.24,19.19,28.74,36.71,58.68,52.49,89.63,25.91,50.86,47.07,104.56,62.91,160.46,21.93,77.4,33.68,159.02,33.68,243.42Z"/><g class="cls-6"><ellipse class="cls-2" cx="1519.13" cy="2526.31" rx="204.36" ry="262.35" transform="translate(-1416.02 2799.99) rotate(-64.31)"/></g><g class="cls-6"><ellipse class="cls-2" cx="1985.51" cy="2479.08" rx="112.42" ry="144.33" transform="translate(-1109.28 3193.51) rotate(-64.31)"/></g><g class="cls-16"><g class="cls-4"><path class="cls-2" d="M2948.55,2505.63c-.05-1.08-.21-2.16-.5-3.21-5.64-36.51-13.37-72.65-23.43-108.16-14.07-49.66-32.53-98.31-54.95-144.92-.08-.18-.17-.34-.26-.52-2.86-5.94-5.77-11.86-8.77-17.74-16.08-31.51-34.04-62.18-53.37-91.13-4.14-6.21-8.44-12.36-12.75-18.49-.15-.21-.25-.45-.42-.66-.04-.05-.09-.08-.12-.13-17.14-24.32-35.52-47.96-54.92-70.44-31.03-35.94-64.77-69.21-100.74-99.64-.48-.45-.96-.87-1.48-1.25-27.27-22.97-55.82-44.32-85.49-63.89-.93-.79-1.96-1.42-3.03-1.96-83.94-54.87-176.65-95.77-274.1-120.3-.17-.05-.34-.08-.51-.12-18.29-4.59-36.75-8.62-55.35-12.05-8.62-1.61-17.41-3.09-26.09-4.39-3.17-.49-6.37-.86-9.55-1.32-.26-.04-.5-.13-.76-.16-.15-.02-.29,0-.44,0-33.51-4.75-67.58-7.76-101.51-8.76-6.96-.19-13.98-.29-20.72-.34-2.05-.05-4.09-.05-6.14-.05-26.59,0-53.07,1.15-78.65,3.41-22.67,1.91-45.79,4.78-68.72,8.54-2.83,.46-5.65,1.03-8.48,1.52-.52,.07-1.03,.15-1.53,.27-31.62,5.54-63.05,12.71-93.5,21.52-15.29,4.36-30.69,9.22-45.76,14.46-44.04,15.26-87.12,34.04-128.04,55.82-34.64,18.44-68.38,39.3-100.31,62.01-99.41,70.86-182.23,159.32-246.16,262.89-1.93,3.13-3.76,6.33-5.65,9.48-.35,.49-.64,1.02-.93,1.55-17.48,29.21-33.47,59.46-47.44,90.23-4.51,9.98-8.16,18.37-11.45,26.37-13.42,32.19-25.09,65.63-34.7,99.41-5.59,19.66-10.42,39.57-14.64,59.5-.26,.83-.43,1.69-.53,2.57-2.71,12.99-5.21,25.98-7.31,38.93-2.28,13.66-4.25,27.7-5.86,41.7-3.22,27.58-5.12,55.72-5.79,83.93,0,.16-.01,.32,0,.48-.16,7.05-.31,14.11-.31,21.16,0,13.01,.26,25.71,.78,37.57,.05,1.52,.15,3,.26,4.73,2.12,47.46,8.05,95.12,17.65,141.67,3.26,15.82,6.93,31.44,10.88,46.39,3.87,14.8,8.18,29.5,12.82,44.11,.1,.36,.21,.72,.33,1.07,10.21,32.03,22.25,63.53,36.03,94.3,.09,.21,.17,.42,.27,.63,7.4,16.5,15.26,32.8,23.65,48.84,33.81,64.58,75.26,124.58,123.11,178.91,.37,.5,.81,.95,1.25,1.4,27.33,30.9,56.75,59.92,88.05,86.87,.36,.34,.73,.66,1.13,.97,27.28,23.41,55.92,45.3,85.92,65.39h0c7.81,5.24,15.7,10.38,23.68,15.37,27.49,17.22,55.94,32.91,85.12,47.06,.2,.11,.36,.25,.57,.35,.14,.07,.29,.09,.43,.15,31.38,15.17,63.62,28.56,96.51,39.98,32.82,11.42,66.42,20.86,100.49,28.42,.24,.06,.46,.17,.71,.21,.16,.03,.32,.02,.48,.05,27.61,6.08,55.51,10.95,83.59,14.41,36.96,4.57,74.66,6.88,112.05,6.88,15.24,0,30.55-.43,45.81-1.2,.02,0,.04,0,.06,0,.11,0,.22-.02,.34-.03,10.54-.53,21.06-1.2,31.48-2.1,31.95-2.69,63.74-7.18,95.22-13.27,.71-.08,1.4-.21,2.08-.39,36.14-7.08,71.86-16.31,106.85-27.76,180.01-58.87,334.84-170.98,447.75-324.22,115.21-156.34,176.11-341.95,176.11-536.76,0-45.72-3.54-91.2-10.31-136.12Zm-74.78,443.31c-7.4-35.82-15.48-68.59-24.18-97.97,21.12-10.56,41.9-22.38,62.15-35.29-9.18,45.69-21.93,90.22-37.98,133.27Zm-61.58,130.81c-16.95-71.09-39.94-139.18-58.86-189.87,23.26-7.28,46.33-15.99,68.94-26.03,11.41,39.29,21.74,84.84,30.79,135.66-12.26,27.49-25.91,54.27-40.88,80.25Zm106.7-304.74c-30.02,20.92-61.49,39.31-93.66,54.63-31.07,14.8-63.24,26.97-95.62,36.18-30.77,8.8-62.7,15.23-94.88,19.11-40.34,4.83-81.71,5.69-122.93,2.53-31.97-2.47-63.66-7.3-94.19-14.35-8.47-1.96-16.89-4.18-25.43-6.57-9.57-27.35-20.73-54.36-33.41-80.66,42.96,7.49,94.81,13.35,151.99,13.35,126.43,0,278.77-28.68,417.82-131.66-1.05,36.32-4.32,72.18-9.69,107.44Zm-326.01,557.17c-25.41,19.83-51.99,38.34-79.7,55.38,6.56-192.33-45.65-384.56-76.56-479.99,20.99,3.96,42.38,6.85,63.93,8.8,36.53,82.99,92.99,240.03,92.34,415.81Zm-110.42,73.41c-31.88,17.86-65.1,33.83-99.56,47.78,62.43-195.55,70.16-378.15,22.95-543.77,30.92,93.85,87.66,297.15,76.61,495.99Zm-344.42-1061.99c65.44,28.12,175.89,64.65,307.89,64.65,122.45,0,263.44-31.47,404.16-130.24,13.98,30.61,26.19,62.07,36.53,94.06-404.14,265.41-692.95,108.11-787.03,39.55,13.59-22.15,26.47-44.92,38.45-68.02Zm-54.42,93.32c58.15,42.01,183.5,113.87,359.78,113.87,126.58,0,279.41-37.1,452.33-148.94,.05,.17,.11,.35,.16,.52,9.08,32.07,16.21,64.66,21.57,97.58-229.39,173.97-512.81,150.88-665.56,120.11-64.08-77.41-131.3-131.34-180.41-164.92,4.13-6.08,8.17-12.14,12.13-18.23Zm378.58,234.44c142.89,0,311.2-30.47,460.04-137.82,3.93,31.84,6.12,63.95,6.56,96.19-208.6,166.26-454.4,149.29-587.31,122.51-18.07-33.31-38.69-65.68-61.64-96.61,51.75,8.8,114.13,15.73,182.36,15.73Zm371.84-426.73c1.01,1.99,1.97,4.02,2.97,6.02-280.43,199.5-562.97,118.53-685.53,66.2,12.82-26.27,24.84-53.45,35.9-81.2,49.93,19.6,129.64,43.01,225.74,43.01,107.87,0,236.27-29.54,365.85-127.16,1.14,1.68,2.33,3.33,3.45,5.01,18.7,28,36.06,57.65,51.61,88.12Zm-72.26-117.59c-233.61,176.45-462.91,120.32-563.69,80.74,11.62-31.3,22.21-63.61,31.63-96.5,44.93,17.23,119.95,40.27,201.7,41.12,1.59,.01,3.17,.02,4.76,.02,105.74,0,191.8-36.83,256.16-109.48,8.21,8.75,16.26,17.68,24.12,26.78,15.86,18.38,30.98,37.6,45.32,57.31Zm-158-166.28c-114.62,77.07-294.5,32.15-342.82,17.98,3.68-19.71,6.87-39.64,9.8-59.69,27.03,6.06,83.89,16.92,144.42,16.92,42.97,0,87.77-5.49,125.04-22.03,21.85,14.63,43.05,30.26,63.55,46.82Zm-328.93-71.47c3.87-30.58,6.85-61.5,8.98-92.7,79.23,21.66,155,54.55,224.98,97.25-81.99,25.68-196.25,3.93-233.96-4.54Zm-19.79,118.95c30.73,9.05,100.76,26.75,178.33,26.75,65.79,0,136.98-12.79,194.11-54.38,15.09,13.1,29.74,26.74,43.95,40.88-133.33,152.46-338.81,97.99-433.81,60.85,6.41-24.36,12.23-49.07,17.42-74.1Zm-.65-219.12c-6.71,103.39-23.08,203.69-48.92,298.25-11.55,42.29-25.13,83.82-40.37,123.43-14.11,36.73-30,72.64-47.24,106.76-15.41,30.67-32.49,60.9-50.79,89.89-9.01,14.36-18.65,28.87-28.63,43.09-18.67,26.48-38.48,51.94-58.87,75.71-23.72,27.65-49.03,54.02-75.25,78.41-25.13,23.44-51.7,45.68-79.03,66.12-30.42,22.93-63.09,44.65-97.14,64.55-9.41,5.53-19.08,10.98-28.76,16.19-.26,.13-.53,.26-.79,.4-107.85,58.52-231.79,101.2-368.42,126.84-.27,.04-.55,.1-.82,.15-.03,0-.05,0-.08,.01-.22,.04-.44,.07-.65,.12-37.1,6.92-75.34,12.59-113.82,17.02-3.17-10.48-6.22-20.99-8.99-31.57-3.82-14.46-7.36-29.54-10.51-44.83-.09-.42-.16-.85-.25-1.27,771.19-116.46,957.27-694.36,998.36-1041.3,6.51,1.03,13.04,2.08,19.48,3.28,13.92,2.57,27.74,5.51,41.49,8.76Zm-1030.24,1135.92c21.63-2.57,43.13-5.54,64.43-8.89-16.36,17.99-31.7,37.41-45.94,58.14-6.67-16.23-12.82-32.66-18.49-49.25Zm939.69-1152.21c-39.92,338.38-221.21,902.89-974.25,1016.18-5.61-33.22-9.3-66.85-11.02-100.41,2.6-3.55,3.63-8.04,2.54-12.39-.59-2.38-1.81-4.48-3.38-6.25-.3-9.15-.49-18.54-.49-28.23,0-3.2,.1-6.41,.14-9.61,325.87-74.09,568.58-217.6,721.4-426.75,123.54-169.08,157.72-342.78,166.79-439.37,4.53,.06,9.07,.09,13.55,.22,28.26,.83,56.64,3.08,84.71,6.62Zm-186.79-3.69c19.12-1.69,38.74-2.72,58.53-3.11-20.19,209.32-147.27,670.73-857.32,835.22,.94-20.72,2.52-41.35,4.89-61.65,1.56-13.53,3.46-27.06,5.66-40.3,1.56-9.62,3.35-19.27,5.26-28.91,626.82-100.79,709.94-540.9,719.5-693.44,21.19-3.4,42.51-6.03,63.48-7.8Zm-210.76,44.77c1.34-.47,2.71-.88,4.06-1.34-25.45,142.54-125.04,420.21-513.22,463.34,12.22-26.53,25.94-52.66,40.88-78.02,124.54-24.32,224.33-78.74,296.56-161.98,59.11-68.13,87.63-141.89,101.33-194.08,23.05-10.3,46.57-19.66,70.4-27.92Zm-220.81,113.94c30.86-21.96,63.51-42.14,97.01-59.97,5.74-3.05,11.53-6.03,17.35-8.95-32.93,102.95-118.54,250.34-339.99,303.62,60-91.78,135.81-170.67,225.63-234.69Zm-302.1,379.46c436.83-40.16,536.37-358.58,558.94-504.9,2.73-.81,5.46-1.68,8.19-2.46,23.79-6.88,48.16-12.76,72.75-17.59-11.3,151.46-97.3,557.44-682.33,656.64,2.96-12.51,6.12-24.99,9.63-37.36,9.11-32.01,20.16-63.71,32.83-94.32Zm13.44,699.66c23.99-37.63,51.63-71.08,82.33-99.53,136.76-26,261.19-68.81,369.98-127.29,8.77,.31,17.34,.81,25.71,1.44,7.37,16.32,17.08,38.79,27.75,66.03-110.53,11.81-333.35,60.01-454.44,254.88-11.18-18.03-21.78-36.45-31.66-55.31-6.92-13.23-13.45-26.65-19.68-40.21Zm234.99,307.07c104.63-181.26,266.19-216.58,343.46-222.57,5.47,26.47,10.12,52.9,13.89,78.96-74.76,7.42-197.9,43.87-295.82,190.49-21.21-14.76-41.76-30.36-61.52-46.88Zm-165.49-183.53c115.18-198.9,342.51-243.94,447.19-253.98,9.91,26.98,19.09,54.21,27.42,81.33-99.2,7.16-298.64,47.53-418.28,247.31-20.06-23.85-38.87-48.75-56.33-74.65Zm77.1,98.47c111.2-194.12,296.94-235.51,406.21-241.77,7.13,24.95,13.57,49.98,19.25,74.82-83.48,7.29-250.29,46.22-360.07,232.09-22.94-20.55-44.75-42.32-65.39-65.14Zm174.72,148.58c91.71-137.32,206.12-170.88,274.93-177.51,3.29,27.37,5.59,54.38,6.88,80.69-113.11,15.11-172.79,90.43-201.18,143.14-23.82-12.03-47.12-25.09-69.73-39.25-3.68-2.3-7.26-4.72-10.9-7.08Zm107.55,59.33c25.39-46.56,77.73-111.84,175.32-126.11,1.39,63.37-3,124.62-13.1,182.53-27.85-6.69-55.34-14.68-82.29-24.05-27.15-9.43-53.82-20.29-79.93-32.38Zm191.39,62.96c11.5-65.31,16.07-134.62,13.39-206.35-1.29-35.98-4.48-73.45-9.48-111.34-4.74-35.97-11.17-72.83-19.11-109.54-7.48-34.73-16.5-70.1-26.8-105.09-10.95-37.29-23.56-75.02-37.5-112.15-15.46-41-29.64-73.4-38.92-93.54-.1-.24-.2-.49-.31-.72-1.16-2.51-2.25-4.85-3.31-7.11,25.72-15.49,50.6-31.95,74.3-49.17,88.64,164.43,212.98,473.85,129.41,807.65-4.67-.5-9.36-.97-14.01-1.54-22.69-2.8-45.28-6.5-67.66-11.07Zm111.79,15.37c84.42-344.41-44.84-661.82-135.35-828.47,20.21-15.55,39.97-32.02,59.02-49.21,104.57,138.34,305.9,474.54,175.45,879.29-32.95,1.29-66.17,.77-99.11-1.61Zm139.43-.85c-2.77,.24-5.57,.39-8.35,.61,128.35-415.39-79.31-758.28-185.43-897.87,19.98-19.11,39.37-39.3,57.92-60.29,129,111.02,380.53,408.34,220.24,946.17-27.92,5.14-56.09,9-84.38,11.38Zm197.4-40.05c-26.24,8.59-52.92,15.85-79.87,21.91,68.95-240.86,64.25-460.71-14.03-653.81-63.06-155.56-160.54-257.02-219.89-308.25,14.54-17.47,28.72-35.73,42.4-54.56,48.29,32.99,114.87,86.38,177.93,163.54,33.21,40.56,62.24,84.07,86.28,129.36,18.99,35.73,35.14,73.11,47.99,111.11,59.12,175.01,52.52,371.27-19.54,583.43-7.04,2.5-14.12,4.95-21.25,7.29Zm296.79-166.3c-4.01-161.75-52.85-305.29-88.46-389.37,8.84,.35,17.67,.54,26.49,.54,22.36,0,44.61-1.19,66.62-3.44,30.17,70.3,66.98,177.69,81.69,307.58-26.71,30.11-55.55,58.41-86.33,84.69Zm112.52-115.66c-16.23-116.43-48.96-213.51-77.09-280.53,22.51-3.41,44.77-8.04,66.58-13.77,21.38,57.07,48.3,137.32,65.3,218.46-16.89,26.24-35.19,51.55-54.79,75.84Z"/></g></g><g class="cls-10"><path class="cls-21" d="M2931.49,2699.12c-1.73,23.03-4.37,45.82-7.82,68.33-12.38,80.95-35.6,158.3-68.23,230.47-306.15,223.12-814.74,361.1-1364.05,333.15-51.25-40.45-97.98-86.47-139.2-137.09-17.32-21.26-33.73-43.38-49.09-66.22,324.95-.91,981.66-55.9,1628.39-428.64Z"/></g><path class="cls-21" d="M2043.21,3541.77c-37.58,0-75.45-2.33-112.57-6.91-63.46-7.83-126.08-22.4-186.15-43.29-64.14-22.27-125.88-51.86-183.49-87.95-27.95-17.47-55.38-36.81-81.52-57.5-52.3-41.28-100.14-88.4-142.17-140.03-17.71-21.73-34.58-44.49-50.13-67.63-18.27-27.21-35.37-55.93-50.82-85.37-31.58-60.39-56.29-124.26-73.46-189.86-3.96-14.98-7.64-30.67-10.93-46.61-9.66-46.86-15.63-94.84-17.75-142.62-.09-1.27-.19-2.85-.25-4.47-.51-11.93-.78-24.69-.78-37.74,0-35.62,2.06-71.3,6.13-106.07,1.61-14.03,3.6-28.14,5.89-41.91,5.48-33.83,13.08-67.99,22.59-101.46,9.65-33.91,21.37-67.51,34.86-99.88,3.3-8,7.07-16.69,11.51-26.49,3.86-8.5,7.92-17.07,12.08-25.49,12.6-25.69,26.81-51.36,42.19-76.25,64.23-104.06,147.44-192.92,247.32-264.12,32.08-22.83,65.98-43.78,100.78-62.3,41.12-21.89,84.4-40.75,128.64-56.09,15.14-5.26,30.62-10.15,45.99-14.53,33.8-9.78,68.82-17.67,103.99-23.42,23.03-3.78,46.27-6.67,69.05-8.58,25.66-2.27,52.27-3.43,79.01-3.43,2.08,0,4.16,0,6.24,.06,6.69,.04,13.74,.14,20.73,.34,37.74,1.11,75.68,4.58,112.8,10.29,8.71,1.32,17.55,2.81,26.22,4.42,202.16,37.26,387.96,144.03,523.15,300.61,24.61,28.52,47.66,58.85,68.52,90.14,1.3,1.93,2.61,3.94,3.92,5.95,17.94,27.32,34.68,56.15,49.71,85.61,26.66,52.33,48.28,107.49,64.27,163.95,22.83,80.59,34.41,164.25,34.41,248.65,0,22.6-.86,45.72-2.55,68.73-1.73,23.07-4.42,46.55-8,69.84-12.46,81.49-35.92,160.72-69.71,235.46-105.04,232.81-304.25,411.77-546.55,490.99-66.44,21.75-135.46,35.75-205.12,41.62-25.78,2.21-52.05,3.33-78.05,3.33Zm.36-1781.6h-.36c-25.62,0-51.09,1.1-75.7,3.28-21.86,1.84-44.09,4.61-66.15,8.22-33.67,5.5-67.17,13.05-99.59,22.43-14.75,4.2-29.53,8.87-44,13.9-42.38,14.68-83.82,32.75-123.19,53.71-33.34,17.74-65.82,37.82-96.55,59.69-95.67,68.2-175.39,153.33-236.92,253.03-14.74,23.84-28.33,48.41-40.41,73.04-4,8.1-7.88,16.28-11.56,24.38-4.25,9.39-7.85,17.68-11.01,25.34-12.94,31.05-24.17,63.22-33.4,95.68-9.1,32.04-16.38,64.74-21.63,97.19-2.2,13.22-4.09,26.68-5.64,40.1-3.9,33.33-5.87,67.52-5.87,101.65,0,12.51,.25,24.71,.75,36.27,.05,1.37,.13,2.52,.21,3.72,.01,.15,.02,.38,.03,.53,2.03,45.75,7.74,91.7,16.99,136.56,3.15,15.25,6.67,30.26,10.46,44.6,16.44,62.85,40.1,124,70.33,181.8,14.8,28.2,31.19,55.72,48.69,81.78,14.9,22.16,31.06,43.96,48.03,64.79,40.27,49.46,86.1,94.59,136.21,134.15,25.05,19.82,51.31,38.35,78.08,55.07,55.18,34.57,114.3,62.9,175.73,84.23,57.51,20.01,117.48,33.95,178.25,41.45,60.17,7.43,122.22,8.61,182.67,3.43,66.73-5.62,132.81-19.03,196.43-39.86,232.08-75.88,422.88-247.3,523.5-470.31,32.36-71.57,54.82-147.43,66.75-225.48,3.43-22.32,6-44.81,7.65-66.86,1.62-22.05,2.44-44.22,2.44-65.89,0-80.86-11.09-161-32.96-238.19-15.31-54.06-36.02-106.88-61.54-156.98-14.39-28.21-30.42-55.82-47.65-82.05-1.24-1.91-2.42-3.73-3.66-5.56-20.04-30.07-42.13-59.12-65.7-86.44-129.5-149.99-307.45-252.26-501.08-287.95-8.27-1.54-16.67-2.96-25.01-4.22-35.62-5.49-71.98-8.8-108.11-9.87-6.7-.19-13.48-.28-20.25-.33-1.96-.05-3.62-.05-5.26-.05Z"/><g class="cls-6"><path class="cls-21" d="M2788.69,2144.04c-207.58,146.74-513.43,239.49-854.5,239.49-260.03,0-499.56-53.89-690.73-144.53,12.57-25.62,26.39-50.53,41.31-74.66,62.67-101.53,145.2-189.49,242.13-258.59,31.43-22.36,64.39-42.75,98.65-60.99,40.21-21.4,82.29-39.78,125.91-54.89,14.78-5.13,29.8-9.88,44.96-14.2,33.16-9.6,67.18-17.27,101.82-22.94,22.26-3.65,44.77-6.48,67.56-8.4,25.48-2.26,51.29-3.36,77.4-3.36,1.92,0,3.84,0,5.76,.05,6.91,.05,13.82,.14,20.68,.34,37.43,1.1,74.28,4.51,110.41,10.08,8.59,1.3,17.13,2.74,25.62,4.32,203.31,37.48,382.39,144,512.13,294.29,24.14,27.97,46.54,57.44,67.08,88.24,1.3,1.92,2.54,3.84,3.79,5.76Z"/></g><g><path class="cls-21" d="M2043.19,3537.51c-37.41,0-75.1-2.31-112.05-6.88-63.16-7.79-125.49-22.29-185.27-43.09-63.84-22.16-125.28-51.61-182.62-87.53-136.67-85.5-248.41-206.16-323.15-348.91-31.43-60.09-56.02-123.66-73.1-188.94-3.95-14.95-7.62-30.58-10.88-46.4-9.61-46.63-15.56-94.38-17.66-141.94-.09-1.3-.19-2.84-.25-4.43-.52-11.94-.78-24.64-.78-37.6,0-35.44,2.05-70.96,6.1-105.57,1.6-13.97,3.58-28,5.86-41.7,5.45-33.69,13.02-67.7,22.49-101,9.6-33.75,21.27-67.19,34.7-99.41,3.28-7.97,7.04-16.61,11.46-26.37,15.73-34.65,33.9-68.71,54.02-101.26,63.92-103.57,146.74-192.02,246.16-262.9,31.94-22.72,65.68-43.58,100.31-62.01,40.93-21.78,84-40.56,128.04-55.82,15.06-5.23,30.46-10.1,45.76-14.46,33.66-9.74,68.5-17.59,103.51-23.31,22.94-3.76,46.06-6.63,68.72-8.54,25.56-2.26,52.04-3.41,78.65-3.41,2.04,0,4.08,0,6.12,.05,6.76,.04,13.77,.14,20.73,.34,37.56,1.11,75.33,4.56,112.27,10.25,8.67,1.31,17.47,2.79,26.08,4.4,201.21,37.09,386.15,143.35,520.71,299.21,24.49,28.39,47.44,58.57,68.2,89.72,19.34,28.96,37.3,59.63,53.37,91.13,26.53,52.08,48.05,106.98,63.97,163.18,22.73,80.21,34.25,163.48,34.25,247.49,0,194.8-60.9,380.41-176.11,536.76-112.92,153.23-267.75,265.34-447.75,324.22-66.13,21.65-134.82,35.58-204.15,41.42-25.66,2.2-51.81,3.32-77.69,3.32Zm.34-1781.6h-.34c-25.73,0-51.33,1.11-76.08,3.3-21.95,1.85-44.29,4.63-66.46,8.26-33.84,5.53-67.51,13.11-100.09,22.54-14.82,4.22-29.67,8.91-44.21,13.97-42.58,14.76-84.23,32.91-123.79,53.97-33.5,17.83-66.14,38-97.02,59.97-96.15,68.54-176.25,154.09-238.08,254.26-19.45,31.48-37.02,64.42-52.23,97.9-4.27,9.43-7.89,17.77-11.07,25.48-13,31.19-24.28,63.52-33.56,96.14-9.15,32.19-16.46,65.06-21.74,97.68-2.21,13.27-4.11,26.8-5.66,40.29-3.92,33.5-5.9,67.85-5.9,102.13,0,12.53,.25,24.79,.75,36.45,.05,1.39,.13,2.6,.22,3.85,2.06,46.39,7.81,92.56,17.1,137.64,3.15,15.29,6.69,30.37,10.51,44.83,16.52,63.15,40.29,124.6,70.67,182.69,72.28,138.06,180.35,254.75,312.54,337.44,55.44,34.73,114.85,63.2,176.58,84.64,57.8,20.11,118.06,34.12,179.13,41.66,60.47,7.47,122.81,8.65,183.55,3.44,67.05-5.65,133.46-19.12,197.4-40.05,360.84-118.01,603.28-452.6,603.28-832.58,0-81.26-11.14-161.79-33.12-239.35-15.39-54.33-36.2-107.41-61.85-157.75-15.54-30.46-32.9-60.11-51.61-88.12-20.09-30.13-42.28-59.33-65.97-86.78-130.13-150.73-308.95-253.49-503.53-289.36-8.31-1.55-16.76-2.97-25.14-4.24-35.78-5.51-72.31-8.85-108.62-9.92-6.73-.18-13.54-.28-20.34-.33-1.93-.04-3.63-.05-5.32-.05Z"/><path class="cls-21" d="M1153.37,2688.09c-1.76,0-3.54-.31-5.24-.95-5.49-2.06-9.26-7.13-9.66-12.98-.11-1.65-.21-3.18-.27-4.77-.16-4.76,1.95-9.31,5.7-12.25,3.74-2.94,8.67-3.93,13.25-2.64l3.55,1.01c5.17,1.44,9.16,5.54,10.47,10.75,1.31,5.2-.28,10.71-4.15,14.42-1.03,.98-2.06,2.02-3.08,3.04-2.85,2.85-6.67,4.38-10.56,4.38Z"/><path class="cls-21" d="M1153.37,2688.09c-1.76,0-3.54-.31-5.24-.95-5.49-2.06-9.26-7.13-9.66-12.98-.11-1.65-.21-3.18-.27-4.77-.16-4.76,1.95-9.31,5.7-12.25,3.74-2.94,8.67-3.93,13.25-2.64l3.55,1.01c5.17,1.44,9.16,5.54,10.47,10.75,1.31,5.2-.28,10.71-4.15,14.42-1.03,.98-2.06,2.02-3.08,3.04-2.85,2.85-6.67,4.38-10.56,4.38Z"/><path class="cls-21" d="M1153.37,2688.09c-1.76,0-3.54-.31-5.24-.95-5.49-2.06-9.26-7.13-9.66-12.98-.11-1.65-.21-3.18-.27-4.77-.16-4.76,1.95-9.31,5.7-12.25,3.74-2.94,8.67-3.93,13.25-2.64l3.55,1.01c5.17,1.44,9.16,5.54,10.47,10.75,1.31,5.2-.28,10.71-4.15,14.42-1.03,.98-2.06,2.02-3.08,3.04-2.85,2.85-6.67,4.38-10.56,4.38Z"/><path class="cls-21" d="M1194.19,2917.36c-7.53,0-14-5.68-14.83-13.34-.88-8.2,5.05-15.57,13.25-16.45,42.55-4.59,84.96-10.8,126.08-18.46,.52-.12,1.04-.22,1.56-.28,136.62-25.65,260.57-68.33,368.42-126.84,.25-.14,.51-.26,.76-.39,9.76-5.26,19.44-10.71,28.78-16.2,34.06-19.91,66.73-41.62,97.14-64.55,27.32-20.45,53.9-42.69,79.03-66.13,26.22-24.39,51.53-50.77,75.24-78.41,20.37-23.73,40.18-49.21,58.87-75.71,9.99-14.23,19.63-28.74,28.63-43.09,18.29-28.95,35.37-59.18,50.79-89.89,17.25-34.13,33.14-70.04,47.24-106.76,15.25-39.64,28.83-81.16,40.37-123.43,26.88-98.36,43.62-202.88,49.78-310.69,.47-8.24,7.48-14.54,15.76-14.06,8.23,.47,14.53,7.53,14.06,15.76-6.28,109.88-23.37,216.49-50.79,316.85-11.8,43.23-25.7,85.72-41.31,126.28-14.46,37.65-30.77,74.49-48.45,109.48-15.84,31.54-33.41,62.63-52.19,92.36-9.25,14.75-19.18,29.69-29.48,44.37-19.26,27.3-39.65,53.52-60.63,77.97-24.44,28.49-50.53,55.67-77.55,80.81-25.9,24.16-53.31,47.09-81.45,68.15-31.3,23.59-64.95,45.96-99.97,66.43-9.84,5.79-20.08,11.55-30.41,17.1-.22,.12-.45,.23-.68,.34-110.64,59.93-237.58,103.58-377.3,129.73-.17,.03-.34,.06-.51,.09-41.95,7.83-85.22,14.16-128.62,18.85-.54,.06-1.08,.09-1.62,.09Z"/><path class="cls-21" d="M1167.46,2810.98c-7.32,0-13.71-5.39-14.77-12.84-1.16-8.17,4.53-15.73,12.69-16.88,776.04-109.78,953.47-694.22,990.16-1032.83,.89-8.2,8.26-14.16,16.46-13.24,8.2,.89,14.13,8.26,13.24,16.46-37.63,347.24-219.62,946.58-1015.67,1059.18-.71,.1-1.41,.15-2.11,.15Z"/><path class="cls-21" d="M1152.64,2625.19c-6.85,0-13.03-4.75-14.57-11.71-1.78-8.06,3.31-16.03,11.36-17.81,746.01-164.84,862.27-653.42,877.62-855.83,.62-8.23,7.85-14.38,16.02-13.76,8.22,.62,14.39,7.8,13.76,16.02-7.06,93.1-38.28,275.8-167.99,453.33-154.63,211.63-401.23,356.1-732.97,429.4-1.09,.24-2.17,.35-3.24,.35Z"/><path class="cls-21" d="M1171.45,2462.33c-7.25,0-13.61-5.29-14.74-12.67-1.25-8.15,4.35-15.78,12.5-17.03,631.38-96.77,699.42-544.03,705.23-678.94,.3-7.99,6.87-14.39,14.93-14.39s14.94,6.66,14.94,14.91v.05c0,.21,0,.43-.01,.64-6.03,140.57-76.54,607.02-730.55,707.26-.77,.12-1.53,.17-2.28,.17Z"/><path class="cls-21" d="M1223.14,2298.27c-8.25,0-14.96-6.69-14.96-14.94s6.2-14.46,14.05-14.91c432.6-35.7,523.13-354.26,541.97-489.59,1.14-8.17,8.69-13.85,16.85-12.73,8.17,1.14,13.87,8.68,12.73,16.85-19.84,142.49-115.03,477.93-569.42,515.27-.41,.03-.81,.05-1.22,.05Z"/><path class="cls-21" d="M1278.5,2189.59c-7.06,0-13.34-5.03-14.67-12.22-1.5-8.11,3.86-15.9,11.97-17.41,272.2-50.35,356.79-236.1,382.98-342.34,1.97-8.01,10.07-12.9,18.08-10.92,8.01,1.97,12.9,10.07,10.92,18.08-12.93,52.45-41.33,129.94-103.16,201.2-73.55,84.77-175.63,139.73-303.39,163.36-.92,.17-1.83,.25-2.73,.25Z"/><path class="cls-21" d="M2426.22,2142.49c-1.59,0-3.17,0-4.76-.02-92.03-.95-175.61-30.04-217.24-47.3-7.62-3.16-11.24-11.9-8.08-19.52,3.16-7.62,11.89-11.24,19.52-8.08,90.42,37.48,315.7,106.05,454.43-66.2,5.18-6.42,14.58-7.44,21-2.26,6.42,5.17,7.44,14.58,2.26,21-65.42,81.22-155.28,122.38-267.13,122.38Z"/><path class="cls-21" d="M2403.15,2268.72c-105.68,0-191.66-28.33-239.88-48.75-7.59-3.22-11.15-11.98-7.93-19.58,3.22-7.59,11.98-11.15,19.58-7.93,94.13,39.86,339.89,111.46,588.24-84.11,6.48-5.11,15.87-3.99,20.97,2.49,5.1,6.48,3.99,15.87-2.49,20.97-133.86,105.41-267.11,136.9-378.49,136.9Z"/><path class="cls-21" d="M2435.97,2398.3c-141.16,0-257.68-41.77-320.86-70.37-7.52-3.4-10.85-12.25-7.45-19.77,3.4-7.52,12.25-10.85,19.77-7.45,115.12,52.1,414.73,149.82,709.79-67.33,6.64-4.89,15.99-3.47,20.88,3.17,4.89,6.64,3.47,15.99-3.17,20.88-145.6,107.16-292.21,140.85-418.95,140.85Z"/><path class="cls-21" d="M2433.44,2540.85c-190.78,0-321.96-84.19-372.81-123.6-6.52-5.05-7.71-14.43-2.65-20.95,5.05-6.52,14.43-7.71,20.95-2.65,81.68,63.3,381.29,247.67,807.14-37.69,6.86-4.59,16.13-2.76,20.72,4.09,4.59,6.85,2.76,16.13-4.09,20.72-179.88,120.54-338.57,160.08-469.26,160.08Z"/><path class="cls-21" d="M2452.24,2661.43c-86.42,0-163.53-11.12-221.42-23.07-8.08-1.67-13.27-9.57-11.61-17.65,1.67-8.08,9.55-13.3,17.65-11.61,153.01,31.57,444.52,57.39,677.66-124.45,6.51-5.07,15.89-3.91,20.96,2.59,5.07,6.51,3.91,15.89-2.59,20.96-153.75,119.92-331.13,153.22-480.65,153.22Z"/><path class="cls-21" d="M2500.79,2789.29c-71.29,0-134.32-9.1-182.11-19.13-8.07-1.69-13.25-9.61-11.55-17.68,1.69-8.07,9.61-13.23,17.68-11.55,132.38,27.76,386.34,48.36,599.68-125.65,6.39-5.21,15.8-4.26,21.01,2.13,5.21,6.39,4.26,15.8-2.13,21.01-145.52,118.69-308.6,150.86-442.57,150.86Z"/><path class="cls-21" d="M2550.57,2909.24c-16.99,0-34.02-.65-51.04-1.95-33.44-2.58-66.62-7.63-98.62-15.02-11.41-2.64-22.67-5.6-34.44-9.05-7.91-2.32-12.45-10.62-10.12-18.54,2.32-7.92,10.64-12.45,18.54-10.12,11.2,3.29,21.91,6.1,32.74,8.61,30.55,7.05,62.24,11.88,94.19,14.34,41.24,3.16,82.6,2.3,122.94-2.53,32.17-3.87,64.1-10.3,94.88-19.11,32.38-9.2,64.54-21.37,95.62-36.17,33.98-16.18,67.21-35.76,98.77-58.19,6.72-4.78,16.05-3.2,20.83,3.52,4.78,6.72,3.2,16.05-3.52,20.83-32.97,23.43-67.7,43.88-103.23,60.81-32.58,15.51-66.32,28.28-100.27,37.93-32.28,9.23-65.77,15.98-99.52,20.04-25.62,3.07-51.62,4.61-77.75,4.61Z"/><path class="cls-21" d="M2348.85,3483.63c-1.62,0-3.26-.27-4.88-.82-7.8-2.69-11.93-11.2-9.24-18.99,74.22-214.74,81.55-413.3,21.8-590.14-12.84-38-28.99-75.39-47.98-111.11-24.04-45.28-53.06-88.8-86.28-129.36-68.38-83.67-140.94-139.44-189.78-171.49-6.89-4.53-8.81-13.79-4.29-20.68,4.52-6.89,13.78-8.82,20.68-4.29,50.58,33.2,125.73,90.96,196.5,177.55,34.45,42.07,64.58,87.25,89.54,134.26,19.74,37.14,36.54,76.02,49.9,115.56,61.92,183.27,54.56,388.32-21.87,609.46-2.14,6.18-7.92,10.06-14.12,10.06Z"/><path class="cls-21" d="M2214.45,3521.05c-1.44,0-2.91-.21-4.36-.65-7.89-2.41-12.33-10.75-9.93-18.64,170.51-559.22-103.14-860.59-228.71-964.2-6.36-5.25-7.27-14.66-2.02-21.02,5.25-6.37,14.67-7.26,21.02-2.02,57.52,47.46,164.06,151.87,231.39,317.95,80.9,199.55,83.21,427.66,6.89,678-1.96,6.44-7.88,10.58-14.28,10.58Z"/><path class="cls-21" d="M2089.07,3536.31c-1.57,0-3.17-.25-4.74-.78-7.82-2.62-12.04-11.08-9.42-18.9,141.28-422.19-80.29-771.3-182.11-901.8-5.07-6.5-3.92-15.89,2.59-20.96,6.5-5.07,15.89-3.91,20.96,2.59,104.79,134.3,332.76,493.74,186.89,929.66-2.09,6.25-7.92,10.2-14.16,10.2Z"/><path class="cls-21" d="M1960.09,3533.67c-1.27,0-2.56-.16-3.84-.51-7.97-2.11-12.72-10.29-10.6-18.27,92.58-348.86-44.45-672.82-134.37-834.88-4-7.21-1.4-16.3,5.81-20.31,7.22-4,16.31-1.4,20.31,5.81,92.11,165.99,232.39,498.06,137.12,857.04-1.77,6.69-7.82,11.11-14.42,11.11Z"/><path class="cls-21" d="M1849.93,3516.44c-.94,0-1.9-.09-2.86-.27-8.1-1.57-13.39-9.41-11.82-17.5,13.02-67.24,18.22-139.24,15.43-214.02-1.25-35.06-4.36-71.57-9.24-108.53-4.63-35.16-10.92-71.2-18.7-107.14-7.32-34-16.16-68.64-26.27-102.97-10.74-36.61-23.12-73.63-36.79-110.05-15.32-40.62-29.34-72.58-38.4-92.23-.11-.24-.21-.47-.31-.71-3.27-7.07-6.14-13.12-8.61-18.16-3.64-7.4-.58-16.35,6.82-19.99,7.4-3.64,16.35-.58,19.99,6.82,2.64,5.37,5.71,11.86,9.22,19.47,.11,.24,.21,.48,.31,.72,9.28,20.14,23.46,52.53,38.93,93.55,13.94,37.12,26.55,74.85,37.49,112.14,10.31,35.02,19.33,70.38,26.81,105.09,7.95,36.72,14.38,73.58,19.11,109.54,5,37.9,8.19,75.36,9.48,111.35,2.87,77.03-2.49,151.32-15.95,220.79-1.38,7.14-7.64,12.1-14.65,12.1Z"/><path class="cls-21" d="M2487.01,3419.18c-.32,0-.65,0-.97-.03-8.23-.53-14.48-7.63-13.94-15.86,13.81-214.32-52.71-435.55-81.95-520.72-2.68-7.8,1.48-16.3,9.28-18.98,7.82-2.68,16.3,1.48,18.98,9.28,29.82,86.87,97.66,312.64,83.5,532.34-.51,7.91-7.08,13.98-14.89,13.98Z"/><path class="cls-21" d="M2597.84,3343.75h-.18c-8.25-.1-14.86-6.86-14.76-15.11,2.14-184.12-59.13-348.51-95.85-430.11-3.38-7.52-.03-16.36,7.49-19.75,7.52-3.38,16.36-.03,19.75,7.49,37.73,83.85,100.69,252.86,98.48,442.72-.1,8.19-6.77,14.76-14.93,14.76Z"/><path class="cls-21" d="M2714.37,3232.33c-7.53,0-14.01-5.68-14.83-13.34-14.93-138.69-55.37-252.28-86.67-323.15-3.33-7.55,.08-16.36,7.63-19.69,7.55-3.33,16.36,.09,19.69,7.63,32.16,72.81,73.7,189.52,89.05,332.02,.88,8.2-5.05,15.57-13.25,16.45-.54,.06-1.08,.09-1.62,.09Z"/><path class="cls-21" d="M2795.57,3123.69c-6.95,0-13.18-4.88-14.62-11.95-18.18-89.01-48.72-177.56-71.15-236.18-2.95-7.7,.91-16.34,8.61-19.28,7.7-2.95,16.34,.9,19.28,8.61,22.83,59.66,53.94,149.88,72.52,240.88,1.65,8.08-3.56,15.97-11.65,17.62-1.01,.2-2.01,.3-3,.3Z"/><path class="cls-21" d="M2858.52,3005.84c-7.12,0-13.42-5.1-14.69-12.35-10.49-59.61-22.74-112.05-36.4-155.87-2.46-7.87,1.94-16.25,9.81-18.7,7.87-2.46,16.25,1.94,18.7,9.81,14.04,45.03,26.59,98.72,37.3,159.58,1.43,8.12-4,15.87-12.12,17.3-.88,.15-1.75,.23-2.61,.23Z"/><path class="cls-21" d="M1655.37,3448.88c-2.16,0-4.36-.47-6.44-1.47-7.44-3.56-10.58-12.48-7.02-19.92,26-54.28,89.46-147.02,222.43-158.29,8.26-.69,15.45,5.4,16.14,13.62,.7,8.22-5.4,15.45-13.62,16.14-118.15,10.02-174.77,92.91-198.01,141.43-2.56,5.36-7.91,8.49-13.48,8.49Z"/><path class="cls-21" d="M1547.5,3386.94c-2.72,0-5.47-.74-7.94-2.3-6.98-4.4-9.08-13.62-4.68-20.6,106.54-169.26,246.6-200.97,320.6-204.8,8.28-.33,15.26,5.91,15.69,14.14,.43,8.24-5.91,15.26-14.14,15.69-68.22,3.53-197.5,33.03-296.86,190.88-2.84,4.51-7.69,6.98-12.66,6.98Z"/><path class="cls-21" d="M1462.71,3322.4c-2.42,0-4.88-.59-7.16-1.84-7.23-3.96-9.89-13.04-5.93-20.27,117.61-214.74,309.85-245.95,387.05-249.39,8.17-.34,15.22,6.01,15.59,14.25,.37,8.24-6.01,15.22-14.25,15.59-72.14,3.22-251.86,32.46-362.18,233.9-2.72,4.96-7.83,7.76-13.11,7.76Z"/><path class="cls-21" d="M1375.1,3235.98c-2.42,0-4.88-.59-7.15-1.83-7.24-3.96-9.9-13.03-5.94-20.27,126.11-230.61,355.48-263.56,448.24-267.02,8.37-.27,15.17,6.13,15.48,14.37,.31,8.24-6.13,15.17-14.37,15.48-108.89,4.06-308.66,42.14-423.15,251.5-2.72,4.96-7.83,7.77-13.12,7.77Z"/><path class="cls-21" d="M1298.7,3136.12c-2.44,0-4.92-.6-7.21-1.87-7.22-3.99-9.84-13.08-5.85-20.3,124.86-225.94,382.05-269.79,486.83-278.15,8.25-.62,15.42,5.48,16.08,13.7,.66,8.22-5.48,15.42-13.7,16.08-99.97,7.98-345.21,49.56-463.06,262.82-2.72,4.93-7.82,7.71-13.09,7.71Z"/><path class="cls-21" d="M1229.89,3010.79c-2.68,0-5.39-.72-7.83-2.23-7.02-4.33-9.19-13.54-4.86-20.56,27.17-43.98,59.09-82.8,94.88-115.38,2.75-2.5,6.33-3.89,10.05-3.89,8.25,0,14.96,6.69,14.96,14.94,0,4.68-2.15,8.87-5.52,11.61-33.49,30.59-63.41,67.07-88.96,108.43-2.82,4.57-7.71,7.09-12.72,7.09Z"/><path class="cls-21" d="M1734.84,2772.38c-.75,0-1.49-.06-2.21-.16-11.93-1.05-24.45-1.78-37.25-2.17-8.16-.25-14.63-7-14.5-15.15,.12-8.16,6.75-14.71,14.91-14.71h.05c14.15,.42,27.57,1.22,40.35,2.36,7.7,.69,13.6,7.14,13.6,14.87,0,8.25-6.69,14.96-14.94,14.96Z"/><path class="cls-21" d="M2423.43,2025.06c-100.48,0-188.36-29.72-194.48-31.83-7.79-2.7-11.93-11.19-9.23-18.99,2.69-7.79,11.19-11.92,18.99-9.24,2.38,.82,239.66,80.89,370.01-25.15,6.4-5.2,15.81-4.24,21.01,2.16,5.2,6.4,4.24,15.8-2.16,21.01-58.68,47.74-134.44,62.05-204.13,62.05Z"/><path class="cls-21" d="M2405.23,1926.03c-81.2,0-155.83-19.54-160.66-20.83-7.97-2.13-12.7-10.31-10.58-18.28,2.12-7.97,10.29-12.71,18.28-10.58,1.75,.46,175.85,45.98,272.68-2.84,7.36-3.72,16.35-.75,20.06,6.61,3.71,7.37,.75,16.35-6.61,20.06-38.77,19.55-87.04,25.86-133.17,25.86Z"/></g><path class="cls-7" d="M3289.93,2194.38c-42.27,93.38-172.74,200-363.96,303.74-217.56,118.14-513.81,227.73-848.12,314.82-318.85,83.06-619.57,132.29-861.46,138.91-157.53,4.32-290.11-7.44-386.51-35.08-93.95-26.92-153.55-68.86-168.33-125.67-25.1-96.26,56.57-200.57,228.21-311.08,84.74-54.61,191.36-110.7,317.94-168.14-7.82,21.16-14.83,42.71-21.07,64.54-2.01,7.01-3.93,14.06-5.71,21.16-3.84,14.83-7.29,29.8-10.37,44.96-134.83,93.23-206.43,187.33-186.32,264.54,15.74,60.51,85.75,102.59,193.86,125.43,199.09,42.13,527.44,14.3,884.35-78.69,379.31-98.8,691.98-246.01,835.16-387.28,64.73-63.82,94.82-125.43,80.9-178.93-18.28-70.2-109.55-115.59-248.65-134.93-3.84-4.65-7.73-9.26-11.66-13.82-7.39-8.59-14.97-16.99-22.75-25.29-21.11-22.74-43.52-44.39-66.99-64.83,226.77-16.17,413.43-3.31,532.77,38.1,77.59,26.92,126.73,65.83,139.97,116.7,7.39,28.31,3.26,58.78-11.28,90.83Z"/><g class="cls-6"><path class="cls-21" d="M3289.93,2194.38c-42.27,93.38-172.74,200-363.96,303.74-217.56,118.14-513.81,227.73-848.12,314.82-318.85,83.06-619.57,132.29-861.46,138.91-157.53,4.32-290.11-7.44-386.51-35.08-93.95-26.92-153.55-68.86-168.33-125.67-25.1-96.26,56.57-200.57,228.21-311.08-175.24,243.86-344.38,653.01,1202.77,272.64,1164.82-286.37,1105.43-667.96,1060.01-749.58,77.59,26.92,135.41,49.59,148.66,100.46,7.39,28.31,3.26,58.78-11.28,90.83Z"/></g><g class="cls-4"><path class="cls-2" d="M3289.93,2194.38c-38.92-222.84-451.2-196.78-594.48-180.8-21.11-22.74-43.52-44.39-66.99-64.83,374.13-26.68,639.1,25.72,672.74,154.8,7.39,28.31,3.26,58.78-11.28,90.83Z"/></g><g class="cls-4"><path class="cls-2" d="M1207.71,2311.89c-7.82,21.16-14.83,42.71-21.07,64.54-2.01,7.01-3.93,14.06-5.71,21.16-164.78,81.19-582.82,316.84-351.05,519.19-93.95-26.92-153.55-68.86-168.33-125.67-37.48-143.81,163.24-305.47,546.16-479.22Z"/></g><path class="cls-21" d="M1152.66,2971.92c-299.85,0-479.97-61.79-509.67-176-39.05-149.72,143.08-313.78,556.8-501.53,7.05-3.21,15.34-1.85,21.01,3.43,5.67,5.28,7.61,13.44,4.93,20.71-7.51,20.31-14.44,41.56-20.61,63.16-6.09,21.37-11.37,43.13-15.71,64.64-.98,4.87-3.81,9.17-7.9,11.99-132.34,91.51-195.79,178.13-178.67,243.91,16.75,64.39,106.72,96.17,179.25,111.49,198.45,41.99,525.75,12.65,875.54-78.49,367.88-95.82,684.59-242.33,826.52-382.37,42.68-42.08,90.47-104.06,75.8-160.44-15.4-59.14-98.05-102.03-232.72-120.75-4.76-.66-9.1-3.09-12.16-6.79-3.75-4.54-7.55-9.04-11.39-13.5-26.93-31.21-56.47-60.88-87.81-88.18-5.85-5.1-8.06-13.21-5.6-20.56,2.46-7.36,9.1-12.51,16.84-13.06,404.69-28.85,657.15,32.78,692.68,169.1,30.54,117.28-106.07,265.12-384.65,416.29h0c-218.75,118.78-513.52,228.23-852.44,316.53-325.04,84.67-624.42,132.92-865.77,139.53-21.99,.6-43.42,.9-64.27,.9Zm22.46-623.9c-172.87,80.88-302.48,157.92-385.64,229.27-88.84,76.23-125.63,146.53-109.35,208.95,24.28,93.36,200.1,147.25,474.59,147.26,19.89,0,40.25-.28,61.15-.85,238.48-6.53,534.88-54.35,857.14-138.3,335.96-87.52,627.74-195.79,843.8-313.12h0c253.97-137.81,390.73-277.2,365.82-372.87-28.32-108.67-259.72-162.63-607.95-143.33,20.35,19.59,39.78,40.09,58.06,61.28,2.4,2.78,4.78,5.58,7.15,8.4,148.79,21.92,237.67,73.04,257.2,148.05,15.47,59.5-13.46,125.92-86,197.44-148.67,146.68-464.11,293.29-843.8,392.19-355.28,92.57-689.17,122.07-893.16,78.9-119.21-25.19-191.29-73.38-208.46-139.38-21.49-82.53,43.36-179.51,187.65-280.74,4.22-20.01,9.21-40.16,14.86-60,2.22-7.76,4.53-15.48,6.93-23.13Z"/></g><g><g><path class="cls-20" d="M2024.81,1692.43c-347.75-.31-525.15-255.08-524.38-457.46,.1-25.09,38.79-63.22,67.43-101.86,29.81-40.23,49.62-89.13,49.62-89.13,0,0-59.47-118.74-41.92-201.3,3.9-18.47,11.65-35.1,24.78-48.23,71.84-71.84,225.78,66.71,225.78,66.71,224.5-109.04,400.25,0,400.25,0,0,0,130.85-130.85,205.26-87.23,17.7,10.37,26.94,31.1,30.74,56.7,12.21,82-31.46,213.82-31.46,213.82,0,0,25.61,53.57,57.16,108.32,18.93,32.89,45,54.8,55.06,82.2,15.86,43.05-44.8,457.87-518.32,457.46Z"/><g class="cls-6"><path class="cls-3" d="M1859.5,1395.12c20.96,11.48,35.9,18.86,61.58,15.39,18.24-2.47,37.35-20.42,47.85-35.63,5.03-7.3,7.98-15.92,12.76-23.35,4.45-6.92,1.66-7.36,9.91-9.04,7.38-1.5,18.41,3.47,26.07,3.94,13.59,.83,27.77-.61,40.95-2.57,13.73-2.04,13.86-5.47,22.45,5.35,15.75,19.83,27.49,40.46,51.38,52.63,22.5,11.46,54.53,13.87,79.64,8.86,3.12,38.41-19.31,78.55-51.15,99.58-44.42,29.34-108.08,51.04-161.39,51.63-31.21,.35-59.21-19.9-83.32-37.17-20.86-14.94-32.57-41.98-41.33-65.49-6.88-18.46-13.48-43.18-12.83-62.86l-2.57-1.28Z"/></g><g class="cls-4"><path class="cls-2" d="M2295.67,926.88s53.37,33.18,132.99,173.61c53.96,95.18,82.96,125.85,104.92,135.24,0,0-66.01-93.34-94.23-167.74-28.22-74.4-143.68-141.11-143.68-141.11Z"/></g><g class="cls-4"><path class="cls-2" d="M1758.16,935.86s-49.95,26.33-129.57,166.77c-53.96,95.18-105.43,116.7-127.4,126.09,0,0,76.4-86.32,104.62-160.73,28.22-74.4,152.35-132.13,152.35-132.13Z"/></g><path class="cls-15" d="M1659.42,862.99c26.62-5.32,74.53,63.89,74.53,63.89l-51.94,21.11s-49.22-79.67-22.6-85Z"/><polygon class="cls-15" points="2323.22 922.08 2379.67 954.06 2399.44 910.91 2383.47 868.32 2323.22 919.51 2323.22 922.08"/><g class="cls-6"><path class="cls-3" d="M1725.2,890.22s-93.34,55.21-145.02,34.45l40.19,105.81s88.42-106.05,129.12-100.92l-24.29-39.34Z"/></g><g class="cls-6"><path class="cls-3" d="M2471.39,924s-43.62,5.05-74.41-60.34l-89.03,57.34,125.86,123.45,37.58-120.46Z"/></g><g class="cls-4"><path class="cls-2" d="M2462.34,830.62c-8.77-3.54-17.86-6.98-26.94-9.18-12.78-3.18-29.15-4.67-43.21-3.13-21.71,2.36-45.57,15.45-66.66,23.6-21.96,8.52-39.92,19.35-57.73,35.05-19.7,17.5-31.1,27.97-57.01,22.94,1.8,5.49,2.21,11.14,1.03,16.63-5.54,25.91-44.49,39.51-86.98,30.43-42.49-9.13-72.4-37.51-66.86-63.42,1.64-7.59,6.16-14.16,12.78-19.35-34.69-3.03-69.94-1.08-106.17,2.46-29.3,2.87-55.42,11.24-81.95,23.6-13.44,6.21-29.2,13.34-42.85,17.04-17.96,4.87-18.57,.97-32.02-9.03-40.08-29.76-81.43-69.07-130.39-85.08-22.48-7.34-58.96-1.08-78.87,9.9-10.16,5.64-17.29,12.21-22.99,19.6,3.9-18.47,11.65-35.1,24.78-48.23,71.84-71.84,225.78,66.71,225.78,66.71,224.5-109.04,400.25,0,400.25,0,0,0,130.85-130.85,205.26-87.23,17.7,10.37,26.94,31.1,30.74,56.7Z"/></g><g class="cls-6"><path class="cls-3" d="M2536.47,1223.99c-30.9,134.03-152.51,372.57-511.66,372.26-305.18-.27-479.17-196.52-516.66-381.37-4.75,8.5-7.7,16.31-7.72,23.13-.77,202.39,176.66,457.14,524.39,457.44,473.53,.41,534.17-414.43,518.35-457.44-1.77-4.82-4.06-9.46-6.69-14.02Z"/></g><circle class="cls-5" cx="1809.36" cy="1235.74" r="125.72"/><path class="cls-3" d="M2028.42,1707.82c-.24,0-.47,0-.72,0-204.36-.18-331.46-84.8-402.09-155.76-86.64-87.04-138.11-205.6-137.68-317.13,.09-23.7,21.47-49.94,46.23-80.33,8.18-10.04,16.63-20.41,24.22-30.65,22.21-29.98,38.88-65.56,45.08-79.61-15.99-34.25-82.48-189.41-11.1-260.78,72.02-72.03,205.15,30.89,239.13,59.39,196.51-91.04,353.72-22.66,395.32-.82,32.92-30.9,142.13-124.5,215.5-81.49,78.03,45.74,21.54,240.13,8.05,282.68,7.31,14.96,28.84,58.23,53.95,101.78,7.72,13.39,16.87,25.05,25.71,36.32,12.32,15.7,23.96,30.52,30.48,48.26,10.69,29.06-4.91,155.42-83.78,268.37-66.84,95.73-198.88,209.78-448.31,209.79Zm-372.25-918.45c-16.19,0-30.72,4.65-42.03,15.95-52.49,52.49-3.36,185.09,20,231.75,1.98,3.96,2.16,8.57,.51,12.67-.84,2.07-20.89,51.19-51.52,92.53-8.01,10.81-16.69,21.46-25.09,31.77-18.4,22.59-39.27,48.19-39.31,61-.39,103.53,47.73,213.92,128.72,295.3,66.52,66.83,186.49,146.53,380.29,146.7h.69c236.2,0,360.42-106.89,423.07-196.63,76.12-109.02,86.32-223.27,80.12-240.11-4.85-13.18-14.56-25.56-25.8-39.88-9.07-11.56-19.35-24.66-28.17-39.95-31.5-54.65-57.46-108.83-57.71-109.37-1.71-3.59-1.97-7.7-.73-11.47,27.5-83.18,53.88-225.27,7.55-252.43-52.52-30.81-152.5,50.8-186.59,84.84-5.06,5.05-12.92,5.96-19,2.19-1.67-1.03-171.7-103.03-385.41,.77-5.63,2.73-12.36,1.78-17.02-2.4-30.89-27.75-106.63-83.22-162.57-83.22Z"/><path class="cls-3" d="M2433.83,1057.77c-4.68,0-9.22-2.47-11.65-6.85-13.49-24.29-30.79-46.65-48.12-65.16-.83-.69-1.57-1.47-2.2-2.33-27.19-28.54-54.06-47.41-65.95-49.27-4.92-.77-9-4.22-10.57-8.94-1.57-4.72-.38-9.93,3.1-13.5,47.08-48.29,79.95-68.13,97.73-58.99,32.43,16.7,14.01,84.33,1.62,119.79,18.28,20.26,35.29,43.16,47.68,65.47,3.57,6.43,1.25,14.53-5.18,18.1-2.05,1.14-4.26,1.68-6.45,1.68Zm-102.02-141.49c13.7,7.64,29.33,19.81,44.95,34.65,10.93-36.34,13.75-67.9,8.12-73.83-8.38,1.54-30.65,18.17-53.07,39.19Z"/><path class="cls-3" d="M1620.36,1057.28c-1.79,0-3.61-.36-5.36-1.13-6.73-2.96-9.78-10.82-6.81-17.55,12.46-28.28,32.58-54.92,56.21-76.27-30.97-66.13-37.77-106.09-20.21-118.81,30.63-22.19,85.7,39.26,115.8,77.86,2.8,3.59,3.57,8.36,2.04,12.65-1.53,4.29-5.14,7.5-9.58,8.51-46.17,10.53-97.72,56.44-119.9,106.79-2.19,4.98-7.07,7.95-12.19,7.95Zm40.53-192c-1.32,11,9.37,44.9,24.96,79.82,13.2-9.36,27.03-16.99,40.9-22.39-26.7-31.39-55.1-56.38-65.85-57.43Z"/><path class="cls-3" d="M2188.21,1301.16c-3.11,0-6.25-.94-8.96-2.89-6.91-4.96-8.49-14.58-3.53-21.48,2.76-3.85,68.42-93.75,139.28-57.31,7.56,3.89,10.54,13.17,6.65,20.73-3.89,7.56-13.16,10.54-20.73,6.65-47.52-24.44-99.67,47.16-100.19,47.88-3.01,4.19-7.73,6.42-12.52,6.42Z"/><path class="cls-3" d="M1869.24,1288.73c-4.78,0-9.5-2.22-12.5-6.4h0c-.52-.73-52.89-72.23-100.2-47.9-7.56,3.9-16.84,.91-20.73-6.65-3.89-7.56-.91-16.84,6.65-20.73,70.85-36.44,136.52,53.46,139.28,57.31,4.96,6.91,3.38,16.52-3.53,21.48-2.72,1.95-5.85,2.89-8.96,2.89Z"/><g><path class="cls-3" d="M2031.47,1390.53c34.21,0,79.78-45.33,64.38-72.69-15.39-27.37-112.04-25.66-127.43,0-15.39,25.66,23.7,72.69,63.04,72.69Z"/><path class="cls-3" d="M1931.98,1470.56c-30.42,0-57.63-18.85-80.9-56.04-4.51-7.21-2.32-16.7,4.89-21.21,7.2-4.52,16.7-2.33,21.21,4.89,17.45,27.89,36.16,41.97,55.48,41.58,36.5-.58,73.37-50.27,84.5-69.37,2.82-4.85,8.1-7.74,13.68-7.65,5.61,.14,10.71,3.31,13.29,8.3,.29,.55,30.77,57.88,77.93,66.22,24.78,4.38,50.89-5.75,77.64-30.12,6.28-5.73,16.02-5.27,21.75,1.02,5.73,6.28,5.27,16.02-1.02,21.75-34.24,31.18-69.19,43.84-103.9,37.64-40.93-7.32-70.55-39.46-86.44-61.37-18.59,24.87-54.34,63.66-96.88,64.37-.41,0-.83,.01-1.24,.01Z"/><path class="cls-3" d="M2126.62,1463.18s-29.04,160.82-94.67,160.82-96.88-159.12-96.88-159.12c52.39-2.82,95.39-76.92,95.39-76.92,0,0,36.33,70.15,96.16,75.23Z"/><path class="cls-15" d="M2109.46,1524.55c-14.93,45.41-40.69,99.45-78.72,99.45s-62.76-50.03-78.51-93.96c23.35-16.01,88.77-51.57,157.23-5.49Z"/><path class="cls-3" d="M2031.95,1639.39c-76.04,0-108.53-153.99-111.98-171.55-.86-4.38,.22-8.91,2.96-12.43,2.74-3.52,6.87-5.68,11.32-5.92,36.16-1.95,72.11-50.67,82.91-69.28,2.82-4.86,8.15-7.79,13.68-7.66,5.62,.14,10.72,3.32,13.3,8.31,.31,.6,33.3,62.68,83.8,66.97,4.32,.37,8.28,2.54,10.92,5.98,2.64,3.44,3.7,7.83,2.93,12.1-3.21,17.75-33.53,173.47-109.82,173.47Zm-78.39-162.24c12.43,50.88,42.35,131.46,78.39,131.46s64.77-81.67,76.42-133.05c-36.75-9.77-63.5-39.1-78.3-59.55-15.54,20.78-43.07,51.28-76.51,61.14Z"/><path class="cls-3" d="M2030.74,1639.39c-36.92,0-68.21-35.04-93-104.15-2.36-6.59,.01-13.94,5.78-17.89,21.25-14.57,96.61-58.02,174.53-5.57,5.72,3.85,8.18,11.03,6.03,17.58-24.01,73.01-55.41,110.03-93.34,110.03Zm-59.69-103.03c18.23,46.09,39.7,72.24,59.69,72.24s42.27-28.02,60.13-77.38c-48.81-26.81-94.8-9.32-119.82,5.14Z"/></g><ellipse class="cls-2" cx="2033.43" cy="1335.92" rx="22.83" ry="8.33"/><path class="cls-2" d="M2030.52,1782.57c-356.65,0-646.81-281.49-646.81-627.48s290.16-627.48,646.81-627.48,646.81,281.49,646.81,627.48-290.16,627.48-646.81,627.48Zm0-1224.17c-339.68,0-616.02,267.68-616.02,596.69s276.35,596.69,616.02,596.69,616.02-267.68,616.02-596.69-276.35-596.69-616.02-596.69Z"/></g><g><g class="cls-4"><path class="cls-2" d="M1604.51,869.28c-4.12,14.16-3.56,26.77,2.4,36.86,23.41,39.64,121.6,25.02,219.28-32.67,97.69-57.69,157.91-136.61,134.5-176.25-11.02-18.66-38.58-25.31-74.87-21.09,216.7-59.14,451.62,31.84,566.9,236.52,30.38,53.98,49.92,111.37,59.3,169.58-3.15-79.07-24.42-158.26-65.51-231.22-138.24-245.53-448.66-327.45-693.35-182.95-190.91,112.74-285.39,329.98-252.02,536.66-4.78-119.37,31.66-238.49,103.37-335.45Z"/></g><g class="cls-10"><path class="cls-2" d="M1566.99,1381.71c142.57,240.48,454.18,313.68,695.92,163.5,197.7-122.83,287.51-356.94,235.75-569.7,27.89,198.73-62.65,406.96-245.17,520.35-241.75,150.18-553.36,76.98-695.92-163.5-25.99-43.87-44.55-90.27-56.09-137.74,9.05,64.56,30.59,128.1,65.51,187.09Z"/></g></g></g><g class="cls-6"><path class="cls-3" d="M1699.09,2017.21c-127.39,16.82-163.49-15.71-167.08-40.78,257.93,52.05,371.34-94.25,407.75-136.35,9.15,36.18-90.39,157.24-240.67,177.13Z"/></g><g><path class="cls-13" d="M2333.15,1686.73c1.92,41.66-38.53,80.4-102.21,105.9,0,0-87.49,110.38-159.29,110.23-57.98-.13-3.95-58.33,18.97-80.71-2.3,.17-4.6,.28-6.9,.39-82.78,3.81-210.22-19.14-249.18-77.66-23.96,45.86-103.07,77.67-143.69,40.21-43.43-40.1,45.85-71.72,45.85-71.72,0,0-98.18-8.34-68.2-69.58,.33-.67,.66-1.31,1.03-1.98,12.61-24.01,54.13-34.05,92.75-25.11h.04c29.88,6.92,58.02,25.25,69.61,57.34,12.9-23.23,37.79-46.57,73.7-61.15,12.58-5.11,25.34-9.6,38.16-13.51-23.42-23.7-51.25-54.98-49.03-67.87,3.77-22.05,119.86-29.71,187.39-22.45,47.26,5.08,71.54,46.72,81.85,71.26,23.13,2.7,44.21,6.81,62.48,11.81,63.78,17.52,104.82,54,106.69,94.59Z"/><g class="cls-4"><path class="cls-2" d="M2332.92,1681.57c.46,9.92-1.46,19.65-5.56,29.06-49.1-63.59-153.36-95.26-218.79-98.71-26.26-1.4-53.96-1.62-81.07,.5,8.05,3.97,13.32,9.47,14.49,16.17,3.04,17.76-23.86,37.18-60.04,43.39-36.18,6.25-68.02-3.14-71.06-20.9-.46-2.58-.24-5.25,.55-7.89-6.74,3.49-13.17,7.41-19.05,11.68-13.02,9.52-28.29,36.28-41.33,42.23-30.62,13.86-56.87-34.34-87.96-43.32-28.99-8.36-65.27-3.17-100.35,9.35-.61-7.06,.94-15.14,5.53-24.47,.35-.69,.66-1.33,1.02-1.98,12.64-24.03,54.15-34.04,92.77-25.11,14.97,3.46,29.44,9.79,41.7,19.26,12.21,9.42,22.15,22.04,27.95,38.08,12.87-23.22,37.75-46.56,73.7-61.14,12.55-5.11,25.32-9.61,38.12-13.53-23.38-23.72-51.21-54.95-49-67.84,3.76-22.08,119.86-29.74,187.4-22.48,47.22,5.06,71.53,46.73,81.82,71.25,23.14,2.7,44.22,6.84,62.49,11.84,63.76,17.52,104.81,53.98,106.68,94.56Z"/></g><g class="cls-6"><path class="cls-3" d="M2333,1683.32c1.92,41.64-38.51,80.41-102.18,105.87,0,0-87.49,110.41-159.29,110.24-57.99-.13-3.99-58.34,18.96-80.72-2.31,.2-4.62,.31-6.93,.42-82.75,3.81-210.21-19.17-249.13-77.68-23.99,45.87-103.09,77.69-143.7,40.2-43.43-40.07,45.86-71.68,45.86-71.68,0,0-95.46-8.15-69.42-67.09,87.96,55.82,379.61,210.22,657.98,12.34,4.76,9,7.41,18.43,7.85,28.1Z"/></g><path class="cls-3" d="M2075.66,1917.23c-1.35,.06-2.69,.09-4.03,.09-20.31-.04-33.2-6.48-38.33-19.11-2.42-5.97-8.99-22.12,23.42-60.93-71.8-1.52-172.76-19.94-221.01-68.38-18.88,22.66-48.79,40.06-79.89,45.46-29.58,5.15-56.14-1.47-74.75-18.64-16.75-15.46-17.85-30.5-15.82-40.39,3.14-15.29,15.66-27.64,29.15-36.82-15.6-5.82-31.57-15.18-40.02-30.09-5.83-10.28-10.35-27.48,1.15-50.98,.42-.85,.84-1.67,1.31-2.54,15.23-29.01,61.72-42.98,108.2-32.4,.18,.03,.36,.07,.54,.11,29.24,6.77,53,22.22,68.08,43.69,16.53-19.59,39.45-35.81,66.53-46.8,5.69-2.31,11.48-4.52,17.35-6.63-35.15-38.13-38.84-53.33-37.04-63.8,2.23-13.05,13.8-27.33,82.61-34.16,38.74-3.84,86.07-3.93,120.57-.23,49.81,5.36,77.03,44.66,90.17,72.3,20.04,2.67,38.99,6.43,56.42,11.21,70.19,19.28,115.14,60.61,117.31,107.87s-37.09,89.38-107.76,118.56c-15.03,18.25-93.45,109.34-164.18,112.6Zm-15.5-30.42c1.27,.56,4.52,1.58,11.53,1.6,52.99,.08,124.81-75.58,147.93-104.75,1.57-1.97,3.62-3.51,5.96-4.44,59.86-23.97,94.68-58.3,93.14-91.82-1.56-33.79-39.27-65.71-96.07-81.31-18.38-5.03-38.68-8.87-60.32-11.39-5.18-.6-9.63-3.95-11.65-8.76-9.03-21.49-30.13-58.19-70.06-62.49-64.93-6.98-152.39,.97-170.67,11.87,2.36,5.45,11.21,20.58,44.15,53.92,3.56,3.6,4.97,8.8,3.73,13.71-1.24,4.91-4.96,8.81-9.8,10.28-12.59,3.84-25.02,8.24-36.94,13.08-29.6,12.02-53.84,31.98-66.5,54.77-2.75,4.96-8.11,7.83-13.8,7.39-5.65-.45-10.52-4.17-12.44-9.5-11.71-32.43-41.68-44.02-58.83-48.07-.16-.03-.32-.07-.48-.1-32.56-7.54-67.68,.59-76.69,17.75-.36,.67-.6,1.13-.83,1.6-7.22,14.74-3.28,21.72-1.99,24.01,9.56,16.92,46.31,23.76,58.43,24.82,6.78,.59,12.23,5.83,13.09,12.58s-3.09,13.18-9.51,15.45c-17.82,6.35-45.4,21.6-47.97,34.15-.77,3.78,1.62,8.26,7.1,13.32,15.98,14.74,38.3,13.47,50.19,11.41,29.77-5.18,58.91-24.79,70.88-47.69,2.36-4.53,6.95-7.47,12.05-7.75h.1c5.07-.24,9.89,2.2,12.7,6.43,32.76,49.21,148.26,75.29,236.48,71.23,2.13-.1,4.31-.2,6.47-.36,6.05-.42,11.77,2.92,14.27,8.46,2.51,5.54,1.28,12.05-3.07,16.3-32.66,31.9-40.2,49.38-40.56,54.32Z"/><path class="cls-3" d="M2169.28,1777.58c-3.8,.17-7.63-1.38-10.23-4.54-64.17-77.96-11.49-145.9-10.95-146.57,4.3-5.4,12.16-6.29,17.57-1.98,5.38,4.29,6.28,12.12,2.02,17.52-1.7,2.18-40.34,53.19,10.67,115.15,4.39,5.33,3.62,13.21-1.7,17.59-2.17,1.79-4.76,2.72-7.36,2.84Z"/><path class="cls-3" d="M1988.94,1602.86c-7.05,.32-13.46-4.56-14.84-11.69-1.52-7.84,3.6-15.43,11.44-16.95,66.03-12.82,174.46-8.54,179.05-8.34,7.98,.33,14.18,7.06,13.85,15.04-.33,7.98-7.04,14.23-15.04,13.85-1.09-.05-109.65-4.32-172.35,7.84-.71,.14-1.41,.22-2.11,.25Z"/><path class="cls-3" d="M2105.46,1836.36c-5.03,.23-10.06,.32-15.07,.24-7.98-.13-14.35-6.7-14.22-14.69,.13-7.98,6.75-14.33,14.69-14.22,62.48,.98,133.86-28.13,134.58-28.43,7.38-3.05,15.83,.47,18.88,7.85,3.05,7.38-.46,15.83-7.83,18.88-2.9,1.2-67.03,27.42-131.02,30.37Z"/><path class="cls-3" d="M1835.22,1759.32c-5.82,.27-11.47-3.03-13.93-8.69-18.07-41.64-3.46-80.21-2.83-81.83,2.9-7.44,11.28-11.12,18.72-8.23,7.42,2.89,11.11,11.23,8.25,18.65-.22,.59-10.76,29.62,2.38,59.9,3.18,7.32-.18,15.84-7.51,19.02-1.66,.72-3.38,1.1-5.09,1.18Z"/><path class="cls-3" d="M1983.46,1648.22c-2.19,8.8-5.59,16.82-9.35,24.59-3.81,7.74-8.09,15.18-12.78,22.35-4.69,7.17-9.8,14.06-15.38,20.64-5.63,6.55-11.63,12.86-18.84,18.37,2.18-8.81,5.57-16.83,9.33-24.6,3.81-7.74,8.09-15.18,12.8-22.33,4.7-7.16,9.81-14.05,15.39-20.63,5.63-6.55,11.63-12.86,18.82-18.38Z"/><path class="cls-3" d="M2033.22,1655.46c-2.19,8.8-5.59,16.82-9.35,24.59-3.81,7.74-8.09,15.18-12.78,22.35-4.69,7.17-9.8,14.06-15.38,20.64-5.63,6.55-11.63,12.86-18.84,18.37,2.18-8.81,5.57-16.83,9.33-24.6,3.81-7.74,8.09-15.18,12.8-22.33,4.7-7.16,9.81-14.05,15.39-20.63,5.63-6.55,11.63-12.86,18.82-18.38Z"/><path class="cls-3" d="M2085.81,1660.94c-2.19,8.8-5.59,16.82-9.35,24.59-3.81,7.74-8.09,15.18-12.78,22.34-4.69,7.17-9.79,14.06-15.38,20.64-5.63,6.55-11.63,12.86-18.84,18.37,2.18-8.81,5.57-16.83,9.33-24.6,3.81-7.74,8.09-15.18,12.8-22.33,4.7-7.16,9.81-14.05,15.39-20.63,5.63-6.55,11.63-12.86,18.82-18.38Z"/><path class="cls-3" d="M2024.83,1646.31c7.67,4.84,14.22,10.57,20.43,16.58,6.16,6.04,11.88,12.43,17.22,19.13,5.34,6.69,10.29,13.7,14.8,21.06,4.46,7.4,8.58,15.07,11.55,23.64-7.69-4.83-14.24-10.56-20.45-16.56-6.16-6.04-11.88-12.43-17.21-19.14-5.33-6.71-10.28-13.71-14.78-21.08-4.46-7.4-8.58-15.07-11.57-23.63Z"/><path class="cls-3" d="M1975.94,1658.1c7.67,4.84,14.22,10.57,20.43,16.57,6.16,6.04,11.88,12.43,17.22,19.13,5.34,6.69,10.29,13.7,14.79,21.06,4.46,7.4,8.58,15.07,11.55,23.64-7.69-4.83-14.24-10.56-20.45-16.56-6.16-6.04-11.88-12.43-17.21-19.14-5.33-6.71-10.28-13.71-14.78-21.08-4.46-7.4-8.58-15.07-11.57-23.63Z"/><path class="cls-3" d="M1924.08,1668.38c7.67,4.84,14.22,10.57,20.43,16.57,6.16,6.04,11.88,12.43,17.22,19.13,5.34,6.69,10.29,13.7,14.79,21.06,4.46,7.4,8.58,15.07,11.55,23.64-7.69-4.83-14.24-10.56-20.45-16.56-6.16-6.04-11.88-12.43-17.21-19.14-5.33-6.71-10.28-13.71-14.78-21.08-4.46-7.4-8.58-15.07-11.57-23.63Z"/></g><path class="cls-2" d="M2415.68,1751.63s-169.57-117.75-224.09-60.18c-54.52,57.57,16.87,243.17,202.41,252.81,101.24,5.26,132.89-59.7,121.96-115.93,0,0-54.7-268.53-195.58-192.95,0,0,19.09,32.34,4.54,68.73l90.76,47.54Z"/><g class="cls-6"><path class="cls-3" d="M2393.77,1949.92c-138.79-7.18-213.73-112.87-219.8-189.78,35.61,50.17,97.3,92.91,183.8,97.4,101.25,5.25,132.91-59.71,121.97-115.9,0,0-2.41-11.81-7.47-29.73,30.22,57.01,43.47,122.07,43.47,122.07,10.94,56.24-20.72,121.2-121.97,115.95Z"/></g><path class="cls-8" d="M2315.36,1942.44c-6.38,0-12.21-4.25-13.95-10.7-2.08-7.71,2.49-15.64,10.2-17.72,98.99-26.65,64.25-170.26,62.72-176.36-1.94-7.74,2.76-15.6,10.5-17.54,7.75-1.93,15.59,2.74,17.54,10.48,15.44,61.19,17.91,184.1-83.24,211.34-1.26,.34-2.52,.5-3.77,.5Z"/><path class="cls-3" d="M2405.32,1959.01c-3.9,0-7.92-.11-12.07-.32-120.87-6.28-193.27-81.88-220.72-150.52-20.4-51.02-17.12-99.55,8.56-126.66,29.81-31.46,83.69-21.58,133.31-1.65,3.15-21.14-5.8-36.04-6.26-36.79-2.09-3.39-2.72-7.55-1.68-11.4,1.04-3.85,3.58-7.15,7.09-9.04,33.53-17.99,65.69-19.99,95.59-5.96,85.76,40.24,119.59,201.9,120.99,208.77,6.86,35.3-1.45,69.56-22.79,94.11-15.97,18.38-46.42,39.46-102.01,39.46Zm-170.44-268.96c-13.87,0-25.27,3.39-32.8,11.34-17.56,18.54-18.62,56.24-2.71,96.04,24.13,60.34,88.12,126.81,195.37,132.38,40.92,2.13,72.3-7.98,90.76-29.23,15.46-17.79,21.39-43.12,16.26-69.5-.29-1.41-32.28-154.19-104.93-188.25-18.01-8.44-36.94-8.59-57.55-.38,3.87,11.54,7.08,28.97,2.22,49.39,40.94,19.66,74.63,42.5,82.42,47.91,6.56,4.55,8.18,13.56,3.63,20.12-4.55,6.56-13.55,8.19-20.12,3.64-24.24-16.82-56.01-35.48-87.66-49.79-.44-.13-.88-.28-1.31-.45-.8-.32-1.56-.71-2.27-1.15-29.51-13.03-58.69-22.07-81.31-22.07Z"/><path class="cls-2" d="M1592.24,1766.29s169.57-117.75,224.09-60.18c54.52,57.57-16.87,243.17-202.41,252.81-101.24,5.26-132.89-59.7-121.96-115.93,0,0,37.68-276.16,178.56-200.58,0,0-2.07,39.97,12.47,76.35l-90.76,47.54Z"/><g class="cls-6"><path class="cls-3" d="M1613.94,1962.44c-101.25,5.25-132.91-59.71-121.97-115.9,0,0,2.36-17.3,8.1-42.07,16.19,30.99,52,53.73,113.59,50.55,110.26-5.73,180.19-73.54,207.32-139.76,45.4,63.13-27.13,237.83-207.03,247.18Z"/></g><path class="cls-8" d="M1692.56,1957.1c-1.25,0-2.51-.16-3.77-.5-101.15-27.23-98.68-150.15-83.24-211.34,1.95-7.74,9.78-12.45,17.56-10.48,7.74,1.95,12.43,9.81,10.48,17.56-1.57,6.28-36.2,149.71,62.72,176.34,7.71,2.08,12.28,10.01,10.2,17.72-1.74,6.45-7.57,10.7-13.95,10.7Z"/><path class="cls-3" d="M1602.6,1973.67c-55.6,0-86.04-21.08-102.01-39.46-21.26-24.47-29.59-58.56-22.89-93.59,1.61-11.51,25.85-174.94,106.72-216.17,28.33-14.43,59.6-12.68,92.94,5.21,4.82,2.59,7.77,7.67,7.62,13.14,0,.26-.48,24.46,7.63,52.08,49.87-20.18,104.23-30.38,134.22,1.28,25.68,27.11,28.96,75.64,8.56,126.66-27.45,68.65-99.84,144.25-220.72,150.52-4.15,.21-8.18,.32-12.07,.32Zm21.5-329.92c-9.28,0-18.09,2.15-26.53,6.46-56.96,29.01-85.2,150.41-91.28,194.74-.04,.27-.08,.53-.13,.8-5.13,26.37,.8,51.71,16.26,69.5,18.46,21.25,49.86,31.34,90.76,29.23,107.25-5.57,171.24-72.04,195.37-132.38,15.91-39.81,14.85-77.5-2.71-96.04-19.8-20.9-66.5-10.28-114.11,10.73-.71,.44-1.47,.83-2.28,1.15-.43,.17-.87,.32-1.31,.45-31.65,14.3-63.42,32.97-87.66,49.79-6.57,4.55-15.57,2.92-20.12-3.64-4.55-6.56-2.93-15.56,3.63-20.12,7.76-5.39,41.25-28.09,81.99-47.7-7.17-22.75-9.19-43.65-9.73-55.26-11.35-5.14-22.02-7.7-32.14-7.7Z"/></g></g><g class="cls-18"><path class="cls-19" d="M6413.85,1845.96c12.38-8.17,24.15-17.18,35.24-27.03,113.41-100.62,238.61-233.66,351.37-405.76,37.71-57.54,70.41-113.94,98.85-168.21-500.63,473.85-2029.44,1546.38-2739.23,1392.82-133.27-28.83-127.96-118.61-22.97-271.89-193.19,102.16-259.98,210.96-246.43,299.88,17.38,114.06,195.81,162.46,281.75,186.52,487.99,136.6,1072.5-223.5,1341.36-411.92,300.02-198.14,600.04-396.27,900.06-594.41Z"/><path class="cls-1" d="M7242.17,801h0c-9.18,0-22.23,3.87-39.83,11.03h0c-70.54,28.79-125.57,62.2-175.18,121.16h0c-11,13.05-20.96,26.3-29.84,39.52h0c-46.18-.87-93.68,15.44-118.57,56.44,33.5-14.3,60.85-11.54,89.48,9.59h0l-26.54,53.32,5.35,4.34,5.35,4.34,61.93,50.19,6.16,4.98,6.16,4.98,48.4-33.03c20.52,19.04,34.34,61.66,32.22,89.54h0c23.61-22.2,45.71-97.82,25.06-134.01h0c12.21-11.57,23.81-24.05,34.61-36.9h0c49.75-59.1,73.93-120.02,89.17-193.78h0c7.43-35.92,4.64-51.7-13.93-51.7h0Z"/></g><g><path class="cls-11" d="M3808,1959.99c-16.67,0-37.17-.17-61.5-.5-24.34-.34-49-.84-74-1.5s-46.84-1.33-65.5-2c0-30,.16-66.83,.5-110.5,.33-43.66,.66-90.66,1-141,.33-50.33,.66-100.66,1-151,.33-50.33,.83-97.66,1.5-142,.66-44.33,1.33-82.16,2-113.5-50,.67-98.67,1.17-146,1.5-47.34,.34-90.67,.5-130,.5l4-100c42.66,0,88.66,.17,138,.5,49.33,.34,99.66,.67,151,1,51.33,.34,101.16,.67,149.5,1,48.33,.34,92.83,.67,133.5,1,40.66,.34,75.16,.67,103.5,1,28.33,.34,47.5,.84,57.5,1.5l3,84c-36.67,1.34-78.67,2.5-126,3.5-47.34,1-97,1.84-149,2.5,.66,30,1.33,66,2,108,.66,42,1.16,87.5,1.5,136.5,.33,49,.66,98.5,1,148.5,.33,50,.66,98.34,1,145,.33,46.67,.5,88.67,.5,126Z"/><path class="cls-11" d="M4221,1960.99c-50.67,0-100-2-148-6-12-36.66-24.84-77.66-38.5-123-13.67-45.33-27.34-92.5-41-141.5-13.67-49-26.67-97.66-39-146-12.34-48.33-23.17-93.5-32.5-135.5,79.33-8,138-12,176-12,12,72,25.83,146.34,41.5,223,15.66,76.67,31.5,148,47.5,214,19.33-85.33,36.33-163.66,51-235,14.66-71.33,27.33-136,38-194,16.66-.66,36.16-1.33,58.5-2,22.33-.66,44.33-1.16,66-1.5,21.66-.33,38.83-.5,51.5-.5,12.66,73.34,26.66,147.5,42,222.5,15.33,75,31,145.17,47,210.5,18-79.33,34.66-155.83,50-229.5,15.33-73.66,28.33-141.83,39-204.5l96,6c-15.34,66.67-31.67,133.17-49,199.5-17.34,66.34-34.67,129.34-52,189-17.34,59.67-34,113.17-50,160.5-32.67,4-82,6-148,6-16-50-33-106-51-168s-35-124-51-186c-17.34,67.34-35,131.34-53,192-18,60.67-35,114.67-51,162Z"/><path class="cls-11" d="M4790.99,1959.99c-.67-22-1.34-51.83-2-89.5-.67-37.66-1.17-81-1.5-130-.34-49-.67-101.5-1-157.5-.34-56-.5-113.33-.5-172,30,0,61.5,.34,94.5,1,33,.67,58.83,1.67,77.5,3,0,48.67-.17,99.67-.5,153-.34,53.34-.67,105.17-1,155.5-.34,50.34-.84,95.84-1.5,136.5-.67,40.67-1.34,72.67-2,96-30.67,1.34-60,2.33-88,3-28,.66-52.67,1-74,1Zm-4-627v-135h170v135h-170Z"/><path class="cls-11" d="M5072.97,1959.99c-.67-21.33-1.34-50.83-2-88.5-.67-37.66-1.17-81.33-1.5-131-.34-49.66-.67-103.33-1-161-.34-57.66-.5-117.16-.5-178.5,14.66,0,32.66,.17,54,.5,21.33,.34,42.83,.84,64.5,1.5,21.66,.67,39.5,1.34,53.5,2v51c56.66-42,114.33-63,173-63,54,0,97.66,19,131,57,33.33,38,57.5,98.67,72.5,182,15,83.34,22.5,192.67,22.5,328-15.34,0-33.67-.17-55-.5-21.34-.34-42.34-.84-63-1.5-20.67-.66-38.67-1.33-54-2,0-118-3.34-212.33-10-283-6.67-70.66-17.67-121.66-33-153-15.34-31.33-36-47-62-47-21.34,0-43,9-65,27s-41,41.67-57,71c-.67,56.67-1.17,110.34-1.5,161-.34,50.67-.84,95.5-1.5,134.5-.67,39-1.34,68.84-2,89.5-20.67,.67-45.84,1.5-75.5,2.5-29.67,1-58.5,1.5-86.5,1.5Z"/><path class="cls-11" d="M5983.97,1962.99c-54,0-102.5-12.5-145.5-37.5s-77-59-102-102-37.5-91.83-37.5-146.5,12.16-103.33,36.5-146c24.33-42.66,57.66-76.33,100-101,42.33-24.66,90.5-37,144.5-37,50.66,0,96.16,11.17,136.5,33.5,40.33,22.34,73,53.5,98,93.5s39.83,87,44.5,141l-397,74c12.66,43.34,32.66,78.5,60,105.5,27.33,27,58,40.5,92,40.5,31.33,0,62.33-10.83,93-32.5,30.66-21.66,54.33-49.5,71-83.5l71,60c-32.67,44-72,78-118,102s-95,36-147,36Zm-135-326v10l233-32c-4.67-42.66-18.34-77-41-103-22.67-26-50.34-39-83-39s-60.67,14.5-80,43.5c-19.34,29-29,69.17-29,120.5Z"/><path class="cls-11" d="M4442,2762.99c-36.67,0-74.5-5-113.5-15s-76-23.83-111-41.5c-35-17.66-64.5-37.83-88.5-60.5,15.33-22,32.33-44.16,51-66.5,18.66-22.33,39.33-44.5,62-66.5,26,28,54.66,53.84,86,77.5,31.33,23.67,62.83,42.84,94.5,57.5,31.66,14.67,60.83,22,87.5,22,24,0,45.5-6.5,64.5-19.5s28.5-31.83,28.5-56.5c0-23.33-9-44.16-27-62.5-18-18.33-41.5-35.33-70.5-51-29-15.66-59.84-31.16-92.5-46.5-28.67-13.33-57-27.33-85-42-28-14.66-53.5-30.66-76.5-48-23-17.33-41.34-36.83-55-58.5-13.67-21.66-20.5-46.16-20.5-73.5s7.16-54,21.5-80c14.33-26,34.5-49.5,60.5-70.5s56.83-37.66,92.5-50c35.66-12.33,74.83-18.5,117.5-18.5,48.66,0,97.83,8.34,147.5,25,49.66,16.67,92.83,40.67,129.5,72-12,22.67-28.17,45-48.5,67-20.34,22-40.17,40.67-59.5,56-40.67-38.66-81-71.16-121-97.5-40-26.33-77.67-39.5-113-39.5-26,0-45.5,6.5-58.5,19.5s-19.5,26.84-19.5,41.5c0,16,7.33,30.67,22,44,14.66,13.34,34,26.34,58,39,24,12.67,50.33,25.67,79,39,30,14,60.5,29,91.5,45s59.66,34.17,86,54.5c26.33,20.34,47.5,43.5,63.5,69.5s24,55.67,24,89-8.17,64.84-24.5,94.5c-16.34,29.67-38.67,55.84-67,78.5-28.34,22.67-61,40.5-98,53.5s-76.17,19.5-117.5,19.5Z"/><path class="cls-11" d="M4980.99,2874.99c-24.67,0-52.5-.5-83.5-1.5s-57.17-1.84-78.5-2.5c-.67-18.67-1.17-46.67-1.5-84-.34-37.33-.84-80.5-1.5-129.5-.67-49-1.17-100.33-1.5-154-.34-53.66-.5-106.33-.5-158v-140.5c14.66-.66,32.33-1.33,53-2,20.66-.66,41.83-1.16,63.5-1.5,21.66-.33,40.16-.5,55.5-.5v33c40-27.33,82-41,126-41s80.66,12,114,36c33.33,24,59.66,56.84,79,98.5,19.33,41.67,29,89.17,29,142.5s-10.17,103.17-30.5,147.5c-20.34,44.34-47.67,79.67-82,106-34.34,26.34-72.84,39.5-115.5,39.5-38.67,0-79.67-11.33-123-34,0,32.66-.17,61.66-.5,87-.34,25.33-.84,45-1.5,59Zm85-600c-28.67,0-55.34,16.34-80,49,0,46-.17,93.84-.5,143.5-.34,49.67-.84,97.84-1.5,144.5,11.33,22,25.66,39.34,43,52,17.33,12.67,36,19,56,19,31.33,0,55.83-16,73.5-48,17.66-32,26.5-76.33,26.5-133,0-43.33-5.17-82.16-15.5-116.5-10.34-34.33-24.17-61.33-41.5-81-17.34-19.66-37.34-29.5-60-29.5Z"/><path class="cls-11" d="M5585.99,2762.99c-56.67,0-102.84-13.83-138.5-41.5-35.67-27.66-53.5-63.83-53.5-108.5,0-40.66,14.83-78.33,44.5-113,29.66-34.66,70.83-64.16,123.5-88.5,52.66-24.33,113-41.16,181-50.5-24-58.66-57-88-99-88-25.34,0-58,9.67-98,29-40,19.34-80.67,44.67-122,76l-30-100c99.33-56.66,193.33-85,282-85,69.33,0,125,18.84,167,56.5,42,37.67,72.66,97.67,92,180,19.33,82.34,29,191.17,29,326.5-12.67,.67-35.17,1.5-67.5,2.5-32.34,1-67.17,1.5-104.5,1.5,0-21.33-.34-42.33-1-63-68.67,44-137,66-205,66Zm-27-157c0,20.67,8.16,37,24.5,49,16.33,12,38.16,18,65.5,18,48,0,94.33-20.66,139-62-4-70.66-11.67-130.33-23-179-26,5.34-51.17,14-75.5,26-24.34,12-46.34,26.17-66,42.5-19.67,16.34-35.34,33.67-47,52-11.67,18.34-17.5,36.17-17.5,53.5Z"/><path class="cls-11" d="M6314.97,2762.99c-39.34,0-76.5-7.5-111.5-22.5s-66-35.5-93-61.5-48.17-56.16-63.5-90.5c-15.34-34.33-23-70.5-23-108.5s7.83-76.16,23.5-110.5c15.66-34.33,37.5-64.83,65.5-91.5,28-26.66,60.16-47.5,96.5-62.5,36.33-15,75.16-22.5,116.5-22.5,86.66,0,169.33,36,248,108l-95,104c-21.34-39.33-48.5-71.16-81.5-95.5-33-24.33-65.5-36.5-97.5-36.5-34.67,0-62.5,14.67-83.5,44-21,29.34-31.5,68.67-31.5,118,0,44.67,7.83,85.67,23.5,123,15.66,37.34,36.83,67.17,63.5,89.5,26.66,22.34,55.66,33.5,87,33.5,27.33,0,54.5-8.66,81.5-26,27-17.33,49.5-40.66,67.5-70l61,60c-78.67,78.67-163.34,118-254,118Z"/><path class="cls-11" d="M6898.97,2762.99c-54,0-102.5-12.5-145.5-37.5s-77-59-102-102-37.5-91.83-37.5-146.5,12.16-103.33,36.5-146c24.33-42.66,57.66-76.33,100-101,42.33-24.66,90.5-37,144.5-37,50.66,0,96.16,11.17,136.5,33.5,40.33,22.34,73,53.5,98,93.5s39.83,87,44.5,141l-397,74c12.66,43.34,32.66,78.5,60,105.5,27.33,27,58,40.5,92,40.5,31.33,0,62.33-10.83,93-32.5,30.66-21.66,54.33-49.5,71-83.5l71,60c-32.67,44-72,78-118,102s-95,36-147,36Zm-135-326v10l233-32c-4.67-42.66-18.34-77-41-103-22.67-26-50.34-39-83-39s-60.67,14.5-80,43.5c-19.34,29-29,69.17-29,120.5Z"/></g><g><path class="cls-2" d="M3866,1888.99c-16.67,0-37.17-.17-61.5-.5-24.34-.34-49-.84-74-1.5s-46.84-1.33-65.5-2c0-30,.16-66.83,.5-110.5,.33-43.66,.66-90.66,1-141,.33-50.33,.66-100.66,1-151,.33-50.33,.83-97.66,1.5-142,.66-44.33,1.33-82.16,2-113.5-50,.67-98.67,1.17-146,1.5-47.34,.34-90.67,.5-130,.5l4-100c42.66,0,88.66,.17,138,.5,49.33,.34,99.66,.67,151,1,51.33,.34,101.16,.67,149.5,1,48.33,.34,92.83,.67,133.5,1,40.66,.34,75.16,.67,103.5,1,28.33,.34,47.5,.84,57.5,1.5l3,84c-36.67,1.34-78.67,2.5-126,3.5-47.34,1-97,1.84-149,2.5,.66,30,1.33,66,2,108,.66,42,1.16,87.5,1.5,136.5,.33,49,.66,98.5,1,148.5,.33,50,.66,98.34,1,145,.33,46.67,.5,88.67,.5,126Z"/><path class="cls-2" d="M4279,1889.99c-50.67,0-100-2-148-6-12-36.66-24.84-77.66-38.5-123-13.67-45.33-27.34-92.5-41-141.5-13.67-49-26.67-97.66-39-146-12.34-48.33-23.17-93.5-32.5-135.5,79.33-8,138-12,176-12,12,72,25.83,146.34,41.5,223,15.66,76.67,31.5,148,47.5,214,19.33-85.33,36.33-163.66,51-235,14.66-71.33,27.33-136,38-194,16.66-.66,36.16-1.33,58.5-2,22.33-.66,44.33-1.16,66-1.5,21.66-.33,38.83-.5,51.5-.5,12.66,73.34,26.66,147.5,42,222.5,15.33,75,31,145.17,47,210.5,18-79.33,34.66-155.83,50-229.5,15.33-73.66,28.33-141.83,39-204.5l96,6c-15.34,66.67-31.67,133.17-49,199.5-17.34,66.34-34.67,129.34-52,189-17.34,59.67-34,113.17-50,160.5-32.67,4-82,6-148,6-16-50-33-106-51-168s-35-124-51-186c-17.34,67.34-35,131.34-53,192-18,60.67-35,114.67-51,162Z"/><path class="cls-2" d="M4848.99,1888.99c-.67-22-1.34-51.83-2-89.5-.67-37.66-1.17-81-1.5-130-.34-49-.67-101.5-1-157.5-.34-56-.5-113.33-.5-172,30,0,61.5,.34,94.5,1,33,.67,58.83,1.67,77.5,3,0,48.67-.17,99.67-.5,153-.34,53.34-.67,105.17-1,155.5-.34,50.34-.84,95.84-1.5,136.5-.67,40.67-1.34,72.67-2,96-30.67,1.34-60,2.33-88,3-28,.66-52.67,1-74,1Zm-4-627v-135h170v135h-170Z"/><path class="cls-2" d="M5130.97,1888.99c-.67-21.33-1.34-50.83-2-88.5-.67-37.66-1.17-81.33-1.5-131-.34-49.66-.67-103.33-1-161-.34-57.66-.5-117.16-.5-178.5,14.66,0,32.66,.17,54,.5,21.33,.34,42.83,.84,64.5,1.5,21.66,.67,39.5,1.34,53.5,2v51c56.66-42,114.33-63,173-63,54,0,97.66,19,131,57,33.33,38,57.5,98.67,72.5,182,15,83.34,22.5,192.67,22.5,328-15.34,0-33.67-.17-55-.5-21.34-.34-42.34-.84-63-1.5-20.67-.66-38.67-1.33-54-2,0-118-3.34-212.33-10-283-6.67-70.66-17.67-121.66-33-153-15.34-31.33-36-47-62-47-21.34,0-43,9-65,27s-41,41.67-57,71c-.67,56.67-1.17,110.34-1.5,161-.34,50.67-.84,95.5-1.5,134.5-.67,39-1.34,68.84-2,89.5-20.67,.67-45.84,1.5-75.5,2.5-29.67,1-58.5,1.5-86.5,1.5Z"/><path class="cls-2" d="M6041.97,1891.99c-54,0-102.5-12.5-145.5-37.5s-77-59-102-102-37.5-91.83-37.5-146.5,12.16-103.33,36.5-146c24.33-42.66,57.66-76.33,100-101,42.33-24.66,90.5-37,144.5-37,50.66,0,96.16,11.17,136.5,33.5,40.33,22.34,73,53.5,98,93.5s39.83,87,44.5,141l-397,74c12.66,43.34,32.66,78.5,60,105.5,27.33,27,58,40.5,92,40.5,31.33,0,62.33-10.83,93-32.5,30.66-21.66,54.33-49.5,71-83.5l71,60c-32.67,44-72,78-118,102s-95,36-147,36Zm-135-326v10l233-32c-4.67-42.66-18.34-77-41-103-22.67-26-50.34-39-83-39s-60.67,14.5-80,43.5c-19.34,29-29,69.17-29,120.5Z"/><path class="cls-2" d="M4500,2691.99c-36.67,0-74.5-5-113.5-15s-76-23.83-111-41.5c-35-17.66-64.5-37.83-88.5-60.5,15.33-22,32.33-44.16,51-66.5,18.66-22.33,39.33-44.5,62-66.5,26,28,54.66,53.84,86,77.5,31.33,23.67,62.83,42.84,94.5,57.5,31.66,14.67,60.83,22,87.5,22,24,0,45.5-6.5,64.5-19.5s28.5-31.83,28.5-56.5c0-23.33-9-44.16-27-62.5-18-18.33-41.5-35.33-70.5-51-29-15.66-59.84-31.16-92.5-46.5-28.67-13.33-57-27.33-85-42-28-14.66-53.5-30.66-76.5-48-23-17.33-41.34-36.83-55-58.5-13.67-21.66-20.5-46.16-20.5-73.5s7.16-54,21.5-80c14.33-26,34.5-49.5,60.5-70.5s56.83-37.66,92.5-50c35.66-12.33,74.83-18.5,117.5-18.5,48.66,0,97.83,8.34,147.5,25,49.66,16.67,92.83,40.67,129.5,72-12,22.67-28.17,45-48.5,67-20.34,22-40.17,40.67-59.5,56-40.67-38.66-81-71.16-121-97.5-40-26.33-77.67-39.5-113-39.5-26,0-45.5,6.5-58.5,19.5s-19.5,26.84-19.5,41.5c0,16,7.33,30.67,22,44,14.66,13.34,34,26.34,58,39,24,12.67,50.33,25.67,79,39,30,14,60.5,29,91.5,45s59.66,34.17,86,54.5c26.33,20.34,47.5,43.5,63.5,69.5s24,55.67,24,89-8.17,64.84-24.5,94.5c-16.34,29.67-38.67,55.84-67,78.5-28.34,22.67-61,40.5-98,53.5s-76.17,19.5-117.5,19.5Z"/><path class="cls-2" d="M5038.99,2803.99c-24.67,0-52.5-.5-83.5-1.5s-57.17-1.84-78.5-2.5c-.67-18.67-1.17-46.67-1.5-84-.34-37.33-.84-80.5-1.5-129.5-.67-49-1.17-100.33-1.5-154-.34-53.66-.5-106.33-.5-158v-140.5c14.66-.66,32.33-1.33,53-2,20.66-.66,41.83-1.16,63.5-1.5,21.66-.33,40.16-.5,55.5-.5v33c40-27.33,82-41,126-41s80.66,12,114,36c33.33,24,59.66,56.84,79,98.5,19.33,41.67,29,89.17,29,142.5s-10.17,103.17-30.5,147.5c-20.34,44.34-47.67,79.67-82,106-34.34,26.34-72.84,39.5-115.5,39.5-38.67,0-79.67-11.33-123-34,0,32.66-.17,61.66-.5,87-.34,25.33-.84,45-1.5,59Zm85-600c-28.67,0-55.34,16.34-80,49,0,46-.17,93.84-.5,143.5-.34,49.67-.84,97.84-1.5,144.5,11.33,22,25.66,39.34,43,52,17.33,12.67,36,19,56,19,31.33,0,55.83-16,73.5-48,17.66-32,26.5-76.33,26.5-133,0-43.33-5.17-82.16-15.5-116.5-10.34-34.33-24.17-61.33-41.5-81-17.34-19.66-37.34-29.5-60-29.5Z"/><path class="cls-2" d="M5643.99,2691.99c-56.67,0-102.84-13.83-138.5-41.5-35.67-27.66-53.5-63.83-53.5-108.5,0-40.66,14.83-78.33,44.5-113,29.66-34.66,70.83-64.16,123.5-88.5,52.66-24.33,113-41.16,181-50.5-24-58.66-57-88-99-88-25.34,0-58,9.67-98,29-40,19.34-80.67,44.67-122,76l-30-100c99.33-56.66,193.33-85,282-85,69.33,0,125,18.84,167,56.5,42,37.67,72.66,97.67,92,180,19.33,82.34,29,191.17,29,326.5-12.67,.67-35.17,1.5-67.5,2.5-32.34,1-67.17,1.5-104.5,1.5,0-21.33-.34-42.33-1-63-68.67,44-137,66-205,66Zm-27-157c0,20.67,8.16,37,24.5,49,16.33,12,38.16,18,65.5,18,48,0,94.33-20.66,139-62-4-70.66-11.67-130.33-23-179-26,5.34-51.17,14-75.5,26-24.34,12-46.34,26.17-66,42.5-19.67,16.34-35.34,33.67-47,52-11.67,18.34-17.5,36.17-17.5,53.5Z"/><path class="cls-2" d="M6372.97,2691.99c-39.34,0-76.5-7.5-111.5-22.5s-66-35.5-93-61.5-48.17-56.16-63.5-90.5c-15.34-34.33-23-70.5-23-108.5s7.83-76.16,23.5-110.5c15.66-34.33,37.5-64.83,65.5-91.5,28-26.66,60.16-47.5,96.5-62.5,36.33-15,75.16-22.5,116.5-22.5,86.66,0,169.33,36,248,108l-95,104c-21.34-39.33-48.5-71.16-81.5-95.5-33-24.33-65.5-36.5-97.5-36.5-34.67,0-62.5,14.67-83.5,44-21,29.34-31.5,68.67-31.5,118,0,44.67,7.83,85.67,23.5,123,15.66,37.34,36.83,67.17,63.5,89.5,26.66,22.34,55.66,33.5,87,33.5,27.33,0,54.5-8.66,81.5-26,27-17.33,49.5-40.66,67.5-70l61,60c-78.67,78.67-163.34,118-254,118Z"/><path class="cls-2" d="M6956.97,2691.99c-54,0-102.5-12.5-145.5-37.5s-77-59-102-102-37.5-91.83-37.5-146.5,12.16-103.33,36.5-146c24.33-42.66,57.66-76.33,100-101,42.33-24.66,90.5-37,144.5-37,50.66,0,96.16,11.17,136.5,33.5,40.33,22.34,73,53.5,98,93.5s39.83,87,44.5,141l-397,74c12.66,43.34,32.66,78.5,60,105.5,27.33,27,58,40.5,92,40.5,31.33,0,62.33-10.83,93-32.5,30.66-21.66,54.33-49.5,71-83.5l71,60c-32.67,44-72,78-118,102s-95,36-147,36Zm-135-326v10l233-32c-4.67-42.66-18.34-77-41-103-22.67-26-50.34-39-83-39s-60.67,14.5-80,43.5c-19.34,29-29,69.17-29,120.5Z"/></g><polygon class="cls-2" points="1051.36 283.32 1110.9 405.28 1235.44 467.4 1113.48 526.94 1051.36 651.55 991.82 529.59 867.21 467.4 989.17 407.93 1051.36 283.32"/><polygon class="cls-2" points="513.21 1213.54 543.77 1276.03 607.63 1307.88 545.06 1338.45 513.21 1402.3 482.72 1339.73 418.86 1307.88 481.36 1277.39 513.21 1213.54"/><polygon class="cls-2" points="310.3 152.13 340.86 214.7 404.72 246.55 342.22 277.04 310.3 340.89 279.81 278.4 215.95 246.55 278.44 215.98 310.3 152.13"/><polygon class="cls-2" points="7193.75 189.69 7235.36 274.95 7322.37 318.38 7237.18 359.92 7193.75 447 7152.14 361.73 7065.13 318.38 7150.32 276.77 7193.75 189.69"/><polygon class="cls-2" points="4362.26 3408.69 4389.8 3465.12 4447.39 3493.87 4391.01 3521.36 4362.26 3579 4334.72 3522.56 4277.13 3493.87 4333.52 3466.33 4362.26 3408.69"/><polygon class="cls-2" points="7791.21 1161.54 7821.77 1224.03 7885.63 1255.88 7823.06 1286.45 7791.21 1350.3 7760.72 1287.73 7696.86 1255.88 7759.36 1225.39 7791.21 1161.54"/></g></svg>