<?xml version="1.0" encoding="UTF-8"?><svg id="Layer_1" xmlns="http://www.w3.org/2000/svg" xmlns:xlink="http://www.w3.org/1999/xlink" viewBox="0 0 247.14 230.62"><defs><style>.cls-1{fill:#fff;}.cls-2{opacity:.6;}.cls-3{opacity:.2;}.cls-4{fill:#70cddd;}.cls-5{opacity:.3;}.cls-6{clip-path:url(#clippath);}.cls-7{fill:none;}.cls-8{fill:#4f174c;}.cls-9{fill:#b9539f;}</style><clipPath id="clippath"><path class="cls-7" d="M202.39,120.63c0,34.83-22.68,64.37-54.08,74.64-5.65,1.85-11.57,3.07-17.7,3.59-2.22,.19-4.47,.29-6.74,.29-3.29,0-6.53-.2-9.72-.6-5.55-.69-10.93-1.95-16.06-3.73-5.59-1.94-10.9-4.5-15.83-7.59-11.82-7.39-21.52-17.85-28.02-30.25-2.69-5.15-4.83-10.64-6.34-16.38-.35-1.33-.66-2.67-.94-4.02-.82-4-1.35-8.11-1.53-12.3,0-.13-.02-.25-.02-.38-.05-1.08-.07-2.17-.07-3.27,0-3.1,.18-6.15,.53-9.15,.14-1.21,.31-2.42,.51-3.61,.48-2.98,1.14-5.9,1.95-8.76,.84-2.94,1.84-5.82,3.01-8.62,.32-.77,.65-1.53,.99-2.29,1.38-3.04,2.94-5.96,4.68-8.78,5.52-8.95,12.8-16.7,21.34-22.79,2.77-1.97,5.68-3.77,8.7-5.38,3.54-1.89,7.25-3.51,11.1-4.84,1.3-.45,2.63-.87,3.96-1.25,2.92-.85,5.92-1.52,8.97-2.02,1.96-.32,3.95-.57,5.96-.74,2.25-.2,4.52-.3,6.82-.3,.17,0,.34,0,.51,0,.61,0,1.22,.01,1.82,.03,3.3,.1,6.55,.4,9.73,.89,.76,.11,1.51,.24,2.26,.38,17.92,3.3,33.7,12.69,45.14,25.94,2.13,2.47,4.1,5.06,5.91,7.78,1.69,2.53,3.24,5.17,4.63,7.9,2.28,4.48,4.15,9.22,5.54,14.14,1.93,6.82,2.97,14.02,2.97,21.46Z"/></clipPath></defs><g><circle class="cls-1" cx="171.02" cy="192.33" r="3.43"/><circle class="cls-1" cx="121.57" cy="196.33" r="1.58"/><circle class="cls-1" cx="208.02" cy="218.76" r="1.58"/><circle class="cls-1" cx="245.56" cy="169.06" r="1.58"/><circle class="cls-1" cx="107.54" cy="2.37" r="2.37"/><circle class="cls-1" cx="149.78" cy="31.58" r="1.58"/><circle class="cls-1" cx="197.99" cy="13.88" r="1.58"/><circle class="cls-1" cx="89.12" cy="229.03" r="1.58"/><circle class="cls-1" cx="30.44" cy="217.89" r="1.58"/><circle class="cls-1" cx="210.08" cy="96.77" r="1.58"/><circle class="cls-1" cx="23.03" cy="162.5" r="1.58"/><circle class="cls-1" cx="4.24" cy="95.17" r="1.58"/><circle class="cls-1" cx="27.4" cy="51.07" r="1.58"/><circle class="cls-1" cx="46.31" cy="6.17" r="1.58"/></g><g><path class="cls-9" d="M202.39,120.63c0,34.83-22.68,64.37-54.08,74.64-5.65,1.85-11.57,3.07-17.7,3.59-2.22,.19-4.47,.29-6.74,.29-3.29,0-6.53-.2-9.72-.6-5.55-.69-10.93-1.95-16.06-3.73-5.59-1.94-10.9-4.5-15.83-7.59-11.82-7.39-21.52-17.85-28.02-30.25-2.69-5.15-4.83-10.64-6.34-16.38-.35-1.33-.66-2.67-.94-4.02-.82-4-1.35-8.11-1.53-12.3,0-.13-.02-.25-.02-.38-.05-1.08-.07-2.17-.07-3.27,0-3.1,.18-6.15,.53-9.15,.14-1.21,.31-2.42,.51-3.61,.48-2.98,1.14-5.9,1.95-8.76,.84-2.94,1.84-5.82,3.01-8.62,.32-.77,.65-1.53,.99-2.29,1.38-3.04,2.94-5.96,4.68-8.78,5.52-8.95,12.8-16.7,21.34-22.79,2.77-1.97,5.68-3.77,8.7-5.38,3.54-1.89,7.25-3.51,11.1-4.84,1.3-.45,2.63-.87,3.96-1.25,2.92-.85,5.92-1.52,8.97-2.02,1.96-.32,3.95-.57,5.96-.74,2.25-.2,4.52-.3,6.82-.3,.17,0,.34,0,.51,0,.61,0,1.22,.01,1.82,.03,3.3,.1,6.55,.4,9.73,.89,.76,.11,1.51,.24,2.26,.38,17.92,3.3,33.7,12.69,45.14,25.94,2.13,2.47,4.1,5.06,5.91,7.78,1.69,2.53,3.24,5.17,4.63,7.9,2.28,4.48,4.15,9.22,5.54,14.14,1.93,6.82,2.97,14.02,2.97,21.46Z"/><g class="cls-3"><ellipse class="cls-1" cx="77.68" cy="111.33" rx="18.01" ry="23.12" transform="translate(-56.32 133.06) rotate(-64.31)"/></g><g class="cls-3"><ellipse class="cls-1" cx="118.79" cy="107.17" rx="9.91" ry="12.72" transform="translate(-29.28 167.75) rotate(-64.31)"/></g><g class="cls-6"><g class="cls-2"><path class="cls-1" d="M203.68,109.51c0-.1-.02-.19-.04-.28-.5-3.22-1.18-6.4-2.07-9.53-1.24-4.38-2.87-8.67-4.84-12.77,0-.02-.02-.03-.02-.05-.25-.52-.51-1.05-.77-1.56-1.42-2.78-3-5.48-4.7-8.03-.37-.55-.74-1.09-1.12-1.63-.01-.02-.02-.04-.04-.06h-.01c-1.51-2.16-3.13-4.24-4.84-6.22-2.74-3.17-5.71-6.1-8.88-8.78-.04-.04-.09-.08-.13-.11-2.4-2.02-4.92-3.91-7.54-5.63-.08-.07-.17-.13-.27-.17-7.4-4.84-15.57-8.44-24.16-10.6-.01,0-.03,0-.04-.01-1.61-.4-3.24-.76-4.88-1.06-.76-.14-1.53-.27-2.3-.39-.28-.04-.56-.08-.84-.12-.02,0-.04-.01-.07-.01-.01,0-.03,0-.04,0-2.95-.42-5.96-.68-8.95-.77-.61-.02-1.23-.03-1.83-.03-.18,0-.36,0-.54,0-2.34,0-4.68,.1-6.93,.3-2,.17-4.04,.42-6.06,.75-.25,.04-.5,.09-.75,.13-.05,0-.09,.01-.13,.02-2.79,.49-5.56,1.12-8.24,1.9-1.35,.38-2.71,.81-4.03,1.27-3.88,1.35-7.68,3-11.29,4.92-3.05,1.63-6.03,3.46-8.84,5.47-8.76,6.25-16.06,14.04-21.7,23.17-.17,.28-.33,.56-.5,.84-.03,.04-.06,.09-.08,.14-1.54,2.57-2.95,5.24-4.18,7.95-.4,.88-.72,1.62-1.01,2.32-1.18,2.84-2.21,5.79-3.06,8.76-.49,1.73-.92,3.49-1.29,5.24-.02,.07-.04,.15-.05,.23-.24,1.14-.46,2.29-.64,3.43-.2,1.2-.37,2.44-.52,3.68-.28,2.43-.45,4.91-.51,7.4,0,.01,0,.03,0,.04-.01,.62-.03,1.24-.03,1.87,0,1.15,.02,2.27,.07,3.31,0,.13,.01,.26,.02,.42,.19,4.18,.71,8.38,1.56,12.49,.29,1.39,.61,2.77,.96,4.09,.34,1.3,.72,2.6,1.13,3.89,0,.03,.02,.06,.03,.09,.9,2.82,1.96,5.6,3.18,8.31,0,.02,.02,.04,.02,.06,.65,1.45,1.35,2.89,2.08,4.3,2.98,5.69,6.63,10.98,10.85,15.77,.03,.04,.07,.08,.11,.12,2.41,2.72,5,5.28,7.76,7.66,.03,.03,.06,.06,.1,.09,2.4,2.06,4.93,3.99,7.57,5.76h0c.69,.46,1.38,.91,2.09,1.36,2.42,1.52,4.93,2.9,7.5,4.15,.02,0,.03,.02,.05,.03,.01,0,.03,0,.04,.01,2.77,1.34,5.61,2.52,8.51,3.52,2.89,1.01,5.85,1.84,8.86,2.5,.02,0,.04,.01,.06,.02,.01,0,.03,0,.04,0,2.43,.54,4.89,.96,7.37,1.27,3.26,.4,6.58,.61,9.88,.61,1.34,0,2.69-.04,4.04-.11h0s.02,0,.03,0c.93-.05,1.86-.11,2.77-.18,2.82-.24,5.62-.63,8.39-1.17,.06,0,.12-.02,.18-.03,3.19-.62,6.33-1.44,9.42-2.45,15.87-5.19,29.51-15.07,39.47-28.58,10.16-13.78,15.52-30.14,15.52-47.31,0-4.03-.31-8.04-.91-12Zm-6.59,39.08c-.65-3.16-1.36-6.05-2.13-8.64,1.86-.93,3.69-1.97,5.48-3.11-.81,4.03-1.93,7.95-3.35,11.75Zm-5.43,11.53c-1.49-6.27-3.52-12.27-5.19-16.74,2.05-.64,4.08-1.41,6.08-2.29,1.01,3.46,1.92,7.48,2.71,11.96-1.08,2.42-2.28,4.78-3.6,7.07Zm9.4-26.86c-2.65,1.84-5.42,3.47-8.26,4.82-2.74,1.3-5.57,2.38-8.43,3.19-2.71,.78-5.53,1.34-8.36,1.68-3.56,.43-7.2,.5-10.84,.22-2.82-.22-5.61-.64-8.3-1.26-.75-.17-1.49-.37-2.24-.58-.84-2.41-1.83-4.79-2.94-7.11,3.79,.66,8.36,1.18,13.4,1.18,11.14,0,24.57-2.53,36.83-11.61-.09,3.2-.38,6.36-.85,9.47Zm-28.74,49.11c-2.24,1.75-4.58,3.38-7.03,4.88,.58-16.95-4.02-33.9-6.75-42.31,1.85,.35,3.74,.6,5.63,.78,3.22,7.32,8.2,21.16,8.14,36.65Zm-9.73,6.47c-2.81,1.57-5.74,2.98-8.78,4.21,5.5-17.24,6.18-33.33,2.02-47.93,2.73,8.27,7.73,26.19,6.75,43.72Zm-30.36-93.61c5.77,2.48,15.5,5.7,27.14,5.7,10.79,0,23.22-2.77,35.62-11.48,1.23,2.7,2.31,5.47,3.22,8.29-35.62,23.39-61.08,9.53-69.37,3.49,1.2-1.95,2.33-3.96,3.39-6Zm-4.8,8.23c5.13,3.7,16.17,10.04,31.71,10.04,11.16,0,24.63-3.27,39.87-13.13v.05c.81,2.83,1.44,5.7,1.91,8.6-20.22,15.33-45.2,13.3-58.66,10.59-5.65-6.82-11.57-11.58-15.9-14.54,.36-.54,.72-1.07,1.07-1.61Zm33.37,20.66c12.6,0,27.43-2.69,40.55-12.15,.35,2.81,.54,5.64,.58,8.48-18.39,14.65-40.05,13.16-51.77,10.8-1.59-2.94-3.41-5.79-5.43-8.52,4.56,.78,10.06,1.39,16.07,1.39Zm32.78-37.61c.09,.18,.17,.35,.26,.53-24.72,17.58-49.62,10.45-60.42,5.84,1.13-2.32,2.19-4.71,3.16-7.16,4.4,1.73,11.43,3.79,19.9,3.79,9.51,0,20.83-2.6,32.25-11.21,.1,.15,.21,.29,.3,.44,1.65,2.47,3.18,5.08,4.55,7.77Zm-6.37-10.36c-20.59,15.55-40.8,10.61-49.69,7.12,1.02-2.76,1.96-5.61,2.79-8.51,3.96,1.52,10.57,3.55,17.78,3.62,.14,0,.28,0,.42,0,9.32,0,16.91-3.25,22.58-9.65,.72,.77,1.43,1.56,2.13,2.36,1.4,1.62,2.73,3.31,3.99,5.05Zm-13.93-14.66c-10.1,6.79-25.96,2.83-30.22,1.59,.32-1.74,.61-3.49,.86-5.26,2.38,.53,7.39,1.49,12.73,1.49,3.79,0,7.74-.48,11.02-1.94,1.93,1.29,3.79,2.67,5.6,4.13Zm-28.99-6.3c.34-2.7,.6-5.42,.79-8.17,6.98,1.91,13.66,4.81,19.83,8.57-7.23,2.26-17.3,.35-20.62-.4Zm-1.74,10.48c2.71,.8,8.88,2.36,15.72,2.36,5.8,0,12.07-1.13,17.11-4.79,1.33,1.15,2.62,2.36,3.87,3.6-11.75,13.44-29.86,8.64-38.24,5.36,.56-2.15,1.08-4.32,1.54-6.53Zm-.06-19.31c-.59,9.11-2.03,17.95-4.31,26.29-1.02,3.73-2.22,7.39-3.56,10.88-1.24,3.24-2.64,6.4-4.16,9.41-1.36,2.7-2.86,5.37-4.48,7.92-.79,1.27-1.64,2.54-2.52,3.8-1.65,2.33-3.39,4.58-5.19,6.67-2.09,2.44-4.32,4.76-6.63,6.91-2.21,2.07-4.56,4.03-6.97,5.83-2.68,2.02-5.56,3.94-8.56,5.69-.83,.49-1.68,.97-2.53,1.43-.02,.01-.05,.02-.07,.04-9.51,5.16-20.43,8.92-32.47,11.18-.02,0-.05,0-.07,.01h0s-.04,0-.06,.01c-3.27,.61-6.64,1.11-10.03,1.5-.28-.92-.55-1.85-.79-2.78-.34-1.27-.65-2.6-.93-3.95,0-.04-.01-.07-.02-.11,67.98-10.27,84.38-61.2,88-91.78,.57,.09,1.15,.18,1.72,.29,1.23,.23,2.45,.49,3.66,.77ZM51.68,146.48c1.91-.23,3.8-.49,5.68-.78-1.44,1.59-2.79,3.3-4.05,5.12-.59-1.43-1.13-2.88-1.63-4.34ZM134.51,44.92c-3.52,29.83-19.5,79.58-85.87,89.57-.49-2.93-.82-5.89-.97-8.85,.23-.31,.32-.71,.22-1.09-.05-.21-.16-.39-.3-.55-.03-.81-.04-1.63-.04-2.49,0-.28,0-.56,.01-.85,28.72-6.53,50.12-19.18,63.59-37.62,10.89-14.9,13.9-30.21,14.7-38.73,.4,0,.8,0,1.19,.02,2.49,.07,4.99,.27,7.47,.58Zm-16.46-.33c1.69-.15,3.42-.24,5.16-.27-1.78,18.45-12.98,59.12-75.57,73.62,.08-1.83,.22-3.64,.43-5.43,.14-1.19,.3-2.39,.5-3.55,.14-.85,.3-1.7,.46-2.55,55.25-8.88,62.58-47.68,63.42-61.12,1.87-.3,3.75-.53,5.6-.69Zm-18.58,3.95c.12-.04,.24-.08,.36-.12-2.24,12.56-11.02,37.04-45.24,40.84,1.08-2.34,2.29-4.64,3.6-6.88,10.98-2.14,19.77-6.94,26.14-14.28,5.21-6,7.72-12.51,8.93-17.11,2.03-.91,4.1-1.73,6.21-2.46Zm-19.46,10.04c2.72-1.94,5.6-3.71,8.55-5.29,.51-.27,1.02-.53,1.53-.79-2.9,9.07-10.45,22.07-29.97,26.76,5.29-8.09,11.97-15.04,19.89-20.69Zm-26.63,33.45c38.5-3.54,47.28-31.61,49.27-44.5,.24-.07,.48-.15,.72-.22,2.1-.61,4.25-1.12,6.41-1.55-1,13.35-8.58,49.13-60.14,57.88,.26-1.1,.54-2.2,.85-3.29,.8-2.82,1.78-5.62,2.89-8.31Zm1.18,61.67c2.11-3.32,4.55-6.27,7.26-8.77,12.05-2.29,23.02-6.06,32.61-11.22,.77,.03,1.53,.07,2.27,.13,.65,1.44,1.51,3.42,2.45,5.82-9.74,1.04-29.38,5.29-40.06,22.47-.99-1.59-1.92-3.21-2.79-4.88-.61-1.17-1.19-2.35-1.73-3.54Zm20.71,27.07c9.22-15.98,23.46-19.09,30.27-19.62,.48,2.33,.89,4.66,1.22,6.96-6.59,.65-17.44,3.87-26.07,16.79-1.87-1.3-3.68-2.68-5.42-4.13Zm-14.59-16.18c10.15-17.53,30.19-21.5,39.42-22.39,.87,2.38,1.68,4.78,2.42,7.17-8.74,.63-26.32,4.19-36.87,21.8-1.77-2.1-3.43-4.3-4.97-6.58Zm6.8,8.68c9.8-17.11,26.17-20.76,35.81-21.31,.63,2.2,1.2,4.41,1.7,6.59-7.36,.64-22.06,4.07-31.74,20.46-2.02-1.81-3.94-3.73-5.76-5.74Zm15.4,13.1c8.08-12.1,18.17-15.06,24.23-15.65,.29,2.41,.49,4.79,.61,7.11-9.97,1.33-15.23,7.97-17.73,12.62-2.1-1.06-4.15-2.21-6.15-3.46-.32-.2-.64-.42-.96-.62Zm9.48,5.23c2.24-4.1,6.85-9.86,15.45-11.12,.12,5.59-.26,10.98-1.16,16.09-2.45-.59-4.88-1.29-7.25-2.12-2.39-.83-4.74-1.79-7.05-2.85Zm16.87,5.55c1.01-5.76,1.42-11.87,1.18-18.19-.11-3.17-.39-6.47-.84-9.81-.42-3.17-.98-6.42-1.68-9.66-.66-3.06-1.45-6.18-2.36-9.26-.96-3.29-2.08-6.61-3.31-9.88-1.36-3.61-2.61-6.47-3.43-8.25,0-.02-.02-.04-.03-.06-.1-.22-.2-.43-.29-.63,2.27-1.37,4.46-2.82,6.55-4.33,7.81,14.49,18.77,41.77,11.41,71.19-.41-.04-.82-.09-1.23-.14-2-.25-3.99-.57-5.96-.98Zm9.85,1.35c7.44-30.36-3.95-58.34-11.93-73.02,1.78-1.37,3.52-2.82,5.2-4.34,9.22,12.19,26.96,41.83,15.46,77.5-2.9,.11-5.83,.07-8.74-.14Zm12.29-.08c-.24,.02-.49,.03-.74,.05,11.31-36.61-6.99-66.84-16.34-79.14,1.76-1.68,3.47-3.46,5.11-5.31,11.37,9.79,33.54,35.99,19.41,83.4-2.46,.45-4.94,.79-7.44,1Zm17.4-3.53c-2.31,.76-4.66,1.4-7.04,1.93,6.08-21.23,5.66-40.61-1.24-57.63-5.56-13.71-14.15-22.65-19.38-27.17,1.28-1.54,2.53-3.15,3.74-4.81,4.26,2.91,10.12,7.61,15.68,14.41,2.93,3.57,5.49,7.41,7.6,11.4,1.67,3.15,3.1,6.44,4.23,9.79,5.21,15.43,4.63,32.73-1.72,51.43-.62,.22-1.24,.44-1.87,.64Zm26.16-14.66c-.35-14.26-4.66-26.91-7.8-34.32,.78,.03,1.56,.05,2.34,.05,1.97,0,3.93-.11,5.87-.3,2.66,6.2,5.9,15.66,7.2,27.11-2.35,2.65-4.9,5.15-7.61,7.46Zm9.92-10.19c-1.43-10.26-4.32-18.82-6.8-24.73,1.98-.3,3.95-.71,5.87-1.21,1.88,5.03,4.26,12.1,5.76,19.26-1.49,2.31-3.1,4.54-4.83,6.68Z"/></g></g><g class="cls-5"><path class="cls-8" d="M202.17,126.56c-.15,2.03-.38,4.04-.69,6.02-1.09,7.14-3.14,13.95-6.01,20.31-26.99,19.67-71.81,31.83-120.23,29.37-4.52-3.57-8.64-7.62-12.27-12.08-1.53-1.87-2.97-3.82-4.33-5.84,28.64-.08,86.53-4.93,143.53-37.78Z"/></g><path class="cls-8" d="M123.88,200.84c-3.31,0-6.65-.21-9.92-.61-5.59-.69-11.11-1.97-16.41-3.82-5.65-1.96-11.1-4.57-16.17-7.75-2.46-1.54-4.88-3.24-7.19-5.07-4.61-3.64-8.83-7.79-12.53-12.34-1.56-1.92-3.05-3.92-4.42-5.96-1.61-2.4-3.12-4.93-4.48-7.53-2.78-5.32-4.96-10.95-6.47-16.73-.35-1.32-.67-2.7-.96-4.11-.85-4.13-1.38-8.36-1.56-12.57,0-.11-.02-.25-.02-.39-.05-1.05-.07-2.18-.07-3.33,0-3.14,.18-6.28,.54-9.35,.14-1.24,.32-2.48,.52-3.69,.48-2.98,1.15-5.99,1.99-8.94,.85-2.99,1.88-5.95,3.07-8.8,.29-.7,.62-1.47,1.01-2.34,.34-.75,.7-1.5,1.07-2.25,1.11-2.26,2.36-4.53,3.72-6.72,5.66-9.17,13-17,21.8-23.28,2.83-2.01,5.82-3.86,8.88-5.49,3.62-1.93,7.44-3.59,11.34-4.94,1.33-.46,2.7-.89,4.05-1.28,2.98-.86,6.07-1.56,9.17-2.06,2.03-.33,4.08-.59,6.09-.76,2.26-.2,4.61-.3,6.96-.3,.18,0,.37,0,.55,0,.59,0,1.21,.01,1.83,.03,3.33,.1,6.67,.4,9.94,.91,.77,.12,1.55,.25,2.31,.39,17.82,3.28,34.2,12.7,46.11,26.5,2.17,2.51,4.2,5.19,6.04,7.95,.11,.17,.23,.35,.35,.52,1.58,2.41,3.06,4.95,4.38,7.55,2.35,4.61,4.26,9.47,5.67,14.45,2.01,7.1,3.03,14.48,3.03,21.92,0,1.99-.08,4.03-.22,6.06-.15,2.03-.39,4.1-.7,6.16-1.1,7.18-3.17,14.17-6.14,20.75-9.26,20.52-26.82,36.29-48.17,43.28-5.86,1.92-11.94,3.15-18.08,3.67-2.27,.19-4.59,.29-6.88,.29Zm.03-157.04h-.03c-2.26,0-4.5,.1-6.67,.29-1.93,.16-3.89,.41-5.83,.72-2.97,.48-5.92,1.15-8.78,1.98-1.3,.37-2.6,.78-3.88,1.23-3.74,1.29-7.39,2.89-10.86,4.73-2.94,1.56-5.8,3.33-8.51,5.26-8.43,6.01-15.46,13.52-20.88,22.3-1.3,2.1-2.5,4.27-3.56,6.44-.35,.71-.69,1.44-1.02,2.15-.37,.83-.69,1.56-.97,2.23-1.14,2.74-2.13,5.57-2.94,8.43-.8,2.82-1.44,5.71-1.91,8.57-.19,1.17-.36,2.35-.5,3.53-.34,2.94-.52,5.95-.52,8.96,0,1.1,.02,2.18,.07,3.2,0,.12,.01,.22,.02,.33v.05c.18,4.03,.69,8.08,1.5,12.04,.28,1.34,.59,2.67,.92,3.93,1.45,5.54,3.53,10.93,6.2,16.02,1.3,2.49,2.75,4.91,4.29,7.21,1.31,1.95,2.74,3.87,4.23,5.71,3.55,4.36,7.59,8.34,12.01,11.82,2.21,1.75,4.52,3.38,6.88,4.85,4.86,3.05,10.07,5.54,15.49,7.42,5.07,1.76,10.36,2.99,15.71,3.65,5.3,.66,10.77,.76,16.1,.3,5.88-.5,11.71-1.68,17.31-3.51,20.46-6.69,37.27-21.8,46.14-41.45,2.85-6.31,4.83-13,5.88-19.87,.3-1.97,.53-3.95,.67-5.89,.14-1.94,.22-3.9,.22-5.81,0-7.13-.98-14.19-2.91-21-1.35-4.77-3.17-9.42-5.42-13.84-1.27-2.49-2.68-4.92-4.2-7.23-.11-.17-.21-.33-.32-.49-1.77-2.65-3.71-5.21-5.79-7.62-11.41-13.22-27.1-22.23-44.17-25.38-.73-.14-1.47-.26-2.2-.37-3.14-.48-6.34-.78-9.53-.87-.59-.02-1.19-.02-1.79-.03-.17,0-.32,0-.46,0Z"/><g class="cls-3"><path class="cls-8" d="M189.58,77.64c-18.3,12.93-45.26,21.11-75.32,21.11-22.92,0-44.03-4.75-60.88-12.74,1.11-2.26,2.33-4.45,3.64-6.58,5.52-8.95,12.8-16.7,21.34-22.79,2.77-1.97,5.68-3.77,8.7-5.38,3.54-1.89,7.25-3.51,11.1-4.84,1.3-.45,2.63-.87,3.96-1.25,2.92-.85,5.92-1.52,8.97-2.02,1.96-.32,3.95-.57,5.96-.74,2.25-.2,4.52-.3,6.82-.3,.17,0,.34,0,.51,0,.61,0,1.22,.01,1.82,.03,3.3,.1,6.55,.4,9.73,.89,.76,.11,1.51,.24,2.26,.38,17.92,3.3,33.7,12.69,45.14,25.94,2.13,2.47,4.1,5.06,5.91,7.78,.11,.17,.22,.34,.33,.51Z"/></g><g><path class="cls-8" d="M123.87,200.46c-3.3,0-6.62-.2-9.88-.61-5.57-.69-11.06-1.96-16.33-3.8-5.63-1.95-11.04-4.55-16.1-7.72-12.05-7.54-21.9-18.17-28.48-30.75-2.77-5.3-4.94-10.9-6.44-16.65-.35-1.32-.67-2.7-.96-4.09-.85-4.11-1.37-8.32-1.56-12.51,0-.11-.02-.25-.02-.39-.05-1.05-.07-2.17-.07-3.31,0-3.12,.18-6.25,.54-9.31,.14-1.23,.32-2.47,.52-3.68,.48-2.97,1.15-5.97,1.98-8.9,.85-2.97,1.88-5.92,3.06-8.76,.29-.7,.62-1.46,1.01-2.32,1.39-3.05,2.99-6.06,4.76-8.93,5.63-9.13,12.93-16.93,21.7-23.17,2.82-2,5.79-3.84,8.84-5.47,3.61-1.92,7.4-3.58,11.29-4.92,1.33-.46,2.68-.89,4.03-1.27,2.97-.86,6.04-1.55,9.12-2.05,2.02-.33,4.06-.58,6.06-.75,2.25-.2,4.59-.3,6.93-.3,.18,0,.36,0,.54,0,.6,0,1.21,.01,1.83,.03,3.31,.1,6.64,.4,9.9,.9,.76,.12,1.54,.25,2.3,.39,17.74,3.27,34.04,12.64,45.9,26.37,2.16,2.5,4.18,5.16,6.01,7.91,1.7,2.55,3.29,5.26,4.7,8.03,2.34,4.59,4.24,9.43,5.64,14.38,2,7.07,3.02,14.41,3.02,21.81,0,17.17-5.37,33.53-15.52,47.31-9.95,13.51-23.6,23.39-39.47,28.58-5.83,1.91-11.88,3.14-17.99,3.65-2.26,.19-4.57,.29-6.85,.29Zm.03-157.04h-.03c-2.27,0-4.52,.1-6.71,.29-1.93,.16-3.9,.41-5.86,.73-2.98,.49-5.95,1.16-8.82,1.99-1.31,.37-2.62,.79-3.9,1.23-3.75,1.3-7.42,2.9-10.91,4.76-2.95,1.57-5.83,3.35-8.55,5.29-8.47,6.04-15.54,13.58-20.98,22.41-1.71,2.77-3.26,5.68-4.6,8.63-.38,.83-.7,1.57-.98,2.25-1.15,2.75-2.14,5.6-2.96,8.47-.81,2.84-1.45,5.73-1.92,8.61-.19,1.17-.36,2.36-.5,3.55-.35,2.95-.52,5.98-.52,9,0,1.1,.02,2.19,.07,3.21,0,.12,.01,.23,.02,.34,.18,4.09,.69,8.16,1.51,12.13,.28,1.35,.59,2.68,.93,3.95,1.46,5.57,3.55,10.98,6.23,16.1,6.37,12.17,15.9,22.45,27.55,29.74,4.89,3.06,10.12,5.57,15.56,7.46,5.09,1.77,10.41,3.01,15.79,3.67,5.33,.66,10.82,.76,16.18,.3,5.91-.5,11.76-1.69,17.4-3.53,31.81-10.4,53.18-39.89,53.18-73.39,0-7.16-.98-14.26-2.92-21.1-1.36-4.79-3.19-9.47-5.45-13.9-1.37-2.68-2.9-5.3-4.55-7.77-1.77-2.66-3.73-5.23-5.81-7.65-11.47-13.29-27.23-22.34-44.38-25.5-.73-.14-1.48-.26-2.22-.37-3.15-.49-6.37-.78-9.57-.87-.59-.02-1.19-.02-1.79-.03-.17,0-.32,0-.47,0Z"/><path class="cls-8" d="M45.44,125.59c-.16,0-.31-.03-.46-.08-.48-.18-.82-.63-.85-1.14,0-.15-.02-.28-.02-.42-.01-.42,.17-.82,.5-1.08,.33-.26,.76-.35,1.17-.23l.31,.09c.46,.13,.81,.49,.92,.95,.12,.46-.02,.94-.37,1.27-.09,.09-.18,.18-.27,.27-.25,.25-.59,.39-.93,.39Z"/><path class="cls-8" d="M45.44,125.59c-.16,0-.31-.03-.46-.08-.48-.18-.82-.63-.85-1.14,0-.15-.02-.28-.02-.42-.01-.42,.17-.82,.5-1.08,.33-.26,.76-.35,1.17-.23l.31,.09c.46,.13,.81,.49,.92,.95,.12,.46-.02,.94-.37,1.27-.09,.09-.18,.18-.27,.27-.25,.25-.59,.39-.93,.39Z"/><path class="cls-8" d="M45.44,125.59c-.16,0-.31-.03-.46-.08-.48-.18-.82-.63-.85-1.14,0-.15-.02-.28-.02-.42-.01-.42,.17-.82,.5-1.08,.33-.26,.76-.35,1.17-.23l.31,.09c.46,.13,.81,.49,.92,.95,.12,.46-.02,.94-.37,1.27-.09,.09-.18,.18-.27,.27-.25,.25-.59,.39-.93,.39Z"/><path class="cls-8" d="M49.04,145.8c-.66,0-1.23-.5-1.31-1.18-.08-.72,.44-1.37,1.17-1.45,3.75-.4,7.49-.95,11.11-1.63,.05-.01,.09-.02,.14-.03,12.04-2.26,22.97-6.02,32.47-11.18,.02-.01,.04-.02,.07-.03,.86-.46,1.71-.94,2.54-1.43,3-1.76,5.88-3.67,8.56-5.69,2.41-1.8,4.75-3.76,6.97-5.83,2.31-2.15,4.54-4.47,6.63-6.91,1.8-2.09,3.54-4.34,5.19-6.67,.88-1.25,1.73-2.53,2.52-3.8,1.61-2.55,3.12-5.22,4.48-7.92,1.52-3.01,2.92-6.17,4.16-9.41,1.34-3.49,2.54-7.15,3.56-10.88,2.37-8.67,3.85-17.88,4.39-27.39,.04-.73,.66-1.28,1.39-1.24,.73,.04,1.28,.66,1.24,1.39-.55,9.69-2.06,19.08-4.48,27.93-1.04,3.81-2.27,7.56-3.64,11.13-1.27,3.32-2.71,6.57-4.27,9.65-1.4,2.78-2.94,5.52-4.6,8.14-.82,1.3-1.69,2.62-2.6,3.91-1.7,2.41-3.49,4.72-5.34,6.87-2.15,2.51-4.45,4.91-6.84,7.12-2.28,2.13-4.7,4.15-7.18,6.01-2.76,2.08-5.72,4.05-8.81,5.86-.87,.51-1.77,1.02-2.68,1.51-.02,.01-.04,.02-.06,.03-9.75,5.28-20.94,9.13-33.26,11.44h-.04c-3.7,.7-7.51,1.26-11.34,1.67-.05,0-.1,0-.14,0Z"/><path class="cls-8" d="M46.68,136.42c-.65,0-1.21-.47-1.3-1.13-.1-.72,.4-1.39,1.12-1.49,68.4-9.68,84.04-61.19,87.28-91.04,.08-.72,.73-1.25,1.45-1.17,.72,.08,1.25,.73,1.17,1.45-3.32,30.61-19.36,83.43-89.52,93.36-.06,0-.12,.01-.19,.01Z"/><path class="cls-8" d="M45.38,120.04c-.6,0-1.15-.42-1.28-1.03-.16-.71,.29-1.41,1-1.57,65.76-14.53,76-57.59,77.36-75.44,.06-.73,.69-1.27,1.41-1.21,.72,.05,1.27,.69,1.21,1.41-.62,8.21-3.37,24.31-14.81,39.96-13.63,18.65-35.37,31.39-64.61,37.85-.1,.02-.19,.03-.29,.03Z"/><path class="cls-8" d="M47.03,105.69c-.64,0-1.2-.47-1.3-1.12-.11-.72,.38-1.39,1.1-1.5,55.65-8.53,61.65-47.95,62.16-59.84,.03-.7,.61-1.27,1.32-1.27s1.32,.59,1.32,1.31h0s0,.04,0,.06c-.53,12.39-6.75,53.5-64.39,62.34-.07,.01-.13,.02-.2,.02Z"/><path class="cls-8" d="M51.59,91.23c-.73,0-1.32-.59-1.32-1.32s.55-1.27,1.24-1.31c38.13-3.15,46.11-31.23,47.77-43.15,.1-.72,.77-1.22,1.49-1.12,.72,.1,1.22,.77,1.12,1.49-1.75,12.56-10.14,42.13-50.19,45.42-.04,0-.07,0-.11,0Z"/><path class="cls-8" d="M56.47,81.65c-.62,0-1.18-.44-1.29-1.08-.13-.72,.34-1.4,1.06-1.53,23.99-4.44,31.45-20.81,33.76-30.18,.17-.71,.89-1.14,1.59-.96,.71,.17,1.14,.89,.96,1.59-1.14,4.62-3.64,11.45-9.09,17.73-6.48,7.47-15.48,12.32-26.74,14.4-.08,.01-.16,.02-.24,.02Z"/><path class="cls-8" d="M157.63,77.5c-.14,0-.28,0-.42,0-8.11-.08-15.48-2.65-19.15-4.17-.67-.28-.99-1.05-.71-1.72,.28-.67,1.05-.99,1.72-.71,7.97,3.3,27.83,9.35,40.05-5.84,.46-.57,1.28-.66,1.85-.2,.57,.46,.66,1.28,.2,1.85-5.77,7.16-13.69,10.79-23.55,10.79Z"/><path class="cls-8" d="M155.6,88.62c-9.32,0-16.89-2.5-21.14-4.3-.67-.28-.98-1.06-.7-1.73,.28-.67,1.06-.98,1.73-.7,8.3,3.51,29.96,9.82,51.85-7.41,.57-.45,1.4-.35,1.85,.22,.45,.57,.35,1.4-.22,1.85-11.8,9.29-23.54,12.07-33.36,12.07Z"/><path class="cls-8" d="M158.49,100.05c-12.44,0-22.71-3.68-28.28-6.2-.66-.3-.96-1.08-.66-1.74,.3-.66,1.08-.96,1.74-.66,10.15,4.59,36.56,13.21,62.56-5.93,.59-.43,1.41-.31,1.84,.28,.43,.59,.31,1.41-.28,1.84-12.83,9.45-25.76,12.42-36.93,12.42Z"/><path class="cls-8" d="M158.27,112.61c-16.82,0-28.38-7.42-32.86-10.89-.57-.45-.68-1.27-.23-1.85,.45-.57,1.27-.68,1.85-.23,7.2,5.58,33.61,21.83,71.14-3.32,.6-.4,1.42-.24,1.83,.36,.4,.6,.24,1.42-.36,1.83-15.86,10.62-29.84,14.11-41.36,14.11Z"/><path class="cls-8" d="M159.93,123.24c-7.62,0-14.41-.98-19.52-2.03-.71-.15-1.17-.84-1.02-1.56,.15-.71,.84-1.17,1.56-1.02,13.49,2.78,39.18,5.06,59.73-10.97,.57-.45,1.4-.34,1.85,.23,.45,.57,.34,1.4-.23,1.85-13.55,10.57-29.19,13.51-42.37,13.51Z"/><path class="cls-8" d="M164.21,134.51c-6.28,0-11.84-.8-16.05-1.69-.71-.15-1.17-.85-1.02-1.56,.15-.71,.85-1.17,1.56-1.02,11.67,2.45,34.05,4.26,52.86-11.08,.56-.46,1.39-.38,1.85,.19,.46,.56,.38,1.39-.19,1.85-12.83,10.46-27.2,13.3-39.01,13.3Z"/><path class="cls-8" d="M168.6,145.08c-1.5,0-3-.06-4.5-.17-2.95-.23-5.87-.67-8.69-1.32-1.01-.23-2-.49-3.04-.8-.7-.2-1.1-.94-.89-1.63,.2-.7,.94-1.1,1.63-.89,.99,.29,1.93,.54,2.89,.76,2.69,.62,5.49,1.05,8.3,1.26,3.63,.28,7.28,.2,10.84-.22,2.84-.34,5.65-.91,8.36-1.68,2.85-.81,5.69-1.88,8.43-3.19,3-1.43,5.92-3.15,8.71-5.13,.59-.42,1.41-.28,1.84,.31,.42,.59,.28,1.41-.31,1.84-2.91,2.06-5.97,3.87-9.1,5.36-2.87,1.37-5.85,2.49-8.84,3.34-2.85,.81-5.8,1.41-8.77,1.77-2.26,.27-4.55,.41-6.85,.41Z"/><path class="cls-8" d="M150.82,195.71c-.14,0-.29-.02-.43-.07-.69-.24-1.05-.99-.81-1.67,6.54-18.93,7.19-36.43,1.92-52.02-1.13-3.35-2.56-6.65-4.23-9.79-2.12-3.99-4.68-7.83-7.6-11.4-6.03-7.38-12.42-12.29-16.73-15.12-.61-.4-.78-1.22-.38-1.82,.4-.61,1.21-.78,1.82-.38,4.46,2.93,11.08,8.02,17.32,15.65,3.04,3.71,5.69,7.69,7.89,11.83,1.74,3.27,3.22,6.7,4.4,10.19,5.46,16.15,4.81,34.23-1.93,53.72-.19,.54-.7,.89-1.24,.89Z"/><path class="cls-8" d="M138.97,199.01c-.13,0-.26-.02-.38-.06-.7-.21-1.09-.95-.88-1.64,15.03-49.29-9.09-75.86-20.16-84.99-.56-.46-.64-1.29-.18-1.85,.46-.56,1.29-.64,1.85-.18,5.07,4.18,14.46,13.39,20.4,28.03,7.13,17.59,7.33,37.7,.61,59.76-.17,.57-.69,.93-1.26,.93Z"/><path class="cls-8" d="M127.92,200.35c-.14,0-.28-.02-.42-.07-.69-.23-1.06-.98-.83-1.67,12.45-37.21-7.08-67.99-16.05-79.49-.45-.57-.35-1.4,.23-1.85,.57-.45,1.4-.34,1.85,.23,9.24,11.84,29.33,43.52,16.47,81.94-.18,.55-.7,.9-1.25,.9Z"/><path class="cls-8" d="M116.55,200.12c-.11,0-.23-.01-.34-.04-.7-.19-1.12-.91-.93-1.61,8.16-30.75-3.92-59.3-11.84-73.59-.35-.64-.12-1.44,.51-1.79,.64-.35,1.44-.12,1.79,.51,8.12,14.63,20.48,43.9,12.09,75.54-.16,.59-.69,.98-1.27,.98Z"/><path class="cls-8" d="M106.84,198.6c-.08,0-.17,0-.25-.02-.71-.14-1.18-.83-1.04-1.54,1.15-5.93,1.61-12.27,1.36-18.86-.11-3.09-.38-6.31-.81-9.57-.41-3.1-.96-6.28-1.65-9.44-.65-3-1.42-6.05-2.32-9.08-.95-3.23-2.04-6.49-3.24-9.7-1.35-3.58-2.59-6.4-3.38-8.13,0-.02-.02-.04-.03-.06-.29-.62-.54-1.16-.76-1.6-.32-.65-.05-1.44,.6-1.76,.65-.32,1.44-.05,1.76,.6,.23,.47,.5,1.05,.81,1.72,0,.02,.02,.04,.03,.06,.82,1.78,2.07,4.63,3.43,8.25,1.23,3.27,2.34,6.6,3.3,9.88,.91,3.09,1.7,6.2,2.36,9.26,.7,3.24,1.27,6.49,1.68,9.66,.44,3.34,.72,6.64,.84,9.81,.25,6.79-.22,13.34-1.41,19.46-.12,.63-.67,1.07-1.29,1.07Z"/><path class="cls-8" d="M162.99,190.03s-.06,0-.09,0c-.73-.05-1.28-.67-1.23-1.4,1.22-18.89-4.65-38.39-7.22-45.9-.24-.69,.13-1.44,.82-1.67,.69-.24,1.44,.13,1.67,.82,2.63,7.66,8.61,27.56,7.36,46.92-.04,.7-.62,1.23-1.31,1.23Z"/><path class="cls-8" d="M172.76,183.38h-.02c-.73,0-1.31-.6-1.3-1.33,.19-16.23-5.21-30.72-8.45-37.91-.3-.66,0-1.44,.66-1.74,.66-.3,1.44,0,1.74,.66,3.33,7.39,8.88,22.29,8.68,39.02,0,.72-.6,1.3-1.32,1.3Z"/><path class="cls-8" d="M183.03,173.56c-.66,0-1.23-.5-1.31-1.18-1.32-12.22-4.88-22.24-7.64-28.48-.29-.67,0-1.44,.67-1.74,.67-.29,1.44,0,1.74,.67,2.83,6.42,6.5,16.7,7.85,29.27,.08,.72-.45,1.37-1.17,1.45-.05,0-.1,0-.14,0Z"/><path class="cls-8" d="M190.19,163.98c-.61,0-1.16-.43-1.29-1.05-1.6-7.85-4.29-15.65-6.27-20.82-.26-.68,.08-1.44,.76-1.7,.68-.26,1.44,.08,1.7,.76,2.01,5.26,4.75,13.21,6.39,21.23,.15,.71-.31,1.41-1.03,1.55-.09,.02-.18,.03-.26,.03Z"/><path class="cls-8" d="M195.74,153.6c-.63,0-1.18-.45-1.3-1.09-.92-5.25-2-9.88-3.21-13.74-.22-.69,.17-1.43,.86-1.65,.69-.22,1.43,.17,1.65,.86,1.24,3.97,2.34,8.7,3.29,14.07,.13,.72-.35,1.4-1.07,1.52-.08,.01-.15,.02-.23,.02Z"/><path class="cls-8" d="M89.69,192.65c-.19,0-.38-.04-.57-.13-.66-.31-.93-1.1-.62-1.76,2.29-4.78,7.89-12.96,19.61-13.95,.73-.06,1.36,.48,1.42,1.2s-.48,1.36-1.2,1.42c-10.41,.88-15.4,8.19-17.45,12.47-.23,.47-.7,.75-1.19,.75Z"/><path class="cls-8" d="M80.18,187.19c-.24,0-.48-.07-.7-.2-.62-.39-.8-1.2-.41-1.82,9.39-14.92,21.74-17.71,28.26-18.05,.73-.03,1.35,.52,1.38,1.25,.04,.73-.52,1.35-1.25,1.38-6.01,.31-17.41,2.91-26.17,16.82-.25,.4-.68,.62-1.12,.62Z"/><path class="cls-8" d="M72.71,181.5c-.21,0-.43-.05-.63-.16-.64-.35-.87-1.15-.52-1.79,10.37-18.93,27.31-21.68,34.12-21.98,.72-.03,1.34,.53,1.37,1.26,.03,.73-.53,1.34-1.26,1.37-6.36,.28-22.2,2.86-31.92,20.62-.24,.44-.69,.68-1.16,.68Z"/><path class="cls-8" d="M64.99,173.88c-.21,0-.43-.05-.63-.16-.64-.35-.87-1.15-.52-1.79,11.12-20.33,31.33-23.23,39.51-23.54,.74-.02,1.34,.54,1.36,1.27,.03,.73-.54,1.34-1.27,1.36-9.6,.36-27.21,3.71-37.3,22.17-.24,.44-.69,.69-1.16,.69Z"/><path class="cls-8" d="M58.25,165.08c-.22,0-.43-.05-.64-.16-.64-.35-.87-1.15-.52-1.79,11.01-19.91,33.68-23.78,42.91-24.52,.73-.05,1.36,.48,1.42,1.21,.06,.72-.48,1.36-1.21,1.42-8.81,.7-30.43,4.37-40.82,23.17-.24,.43-.69,.68-1.15,.68Z"/><path class="cls-8" d="M52.19,154.03c-.24,0-.48-.06-.69-.2-.62-.38-.81-1.19-.43-1.81,2.39-3.88,5.21-7.3,8.36-10.17,.24-.22,.56-.34,.89-.34,.73,0,1.32,.59,1.32,1.32,0,.41-.19,.78-.49,1.02-2.95,2.7-5.59,5.91-7.84,9.56-.25,.4-.68,.62-1.12,.62Z"/><path class="cls-8" d="M96.69,133.02c-.07,0-.13,0-.19-.01-1.05-.09-2.16-.16-3.28-.19-.72-.02-1.29-.62-1.28-1.34,.01-.72,.6-1.3,1.31-1.3h0c1.25,.04,2.43,.11,3.56,.21,.68,.06,1.2,.63,1.2,1.31,0,.73-.59,1.32-1.32,1.32Z"/><path class="cls-8" d="M157.39,67.15c-8.86,0-16.6-2.62-17.14-2.81-.69-.24-1.05-.99-.81-1.67,.24-.69,.99-1.05,1.67-.81,.21,.07,21.12,7.13,32.61-2.22,.56-.46,1.39-.37,1.85,.19,.46,.56,.37,1.39-.19,1.85-5.17,4.21-11.85,5.47-17.99,5.47Z"/><path class="cls-8" d="M155.78,58.42c-7.16,0-13.74-1.72-14.16-1.84-.7-.19-1.12-.91-.93-1.61,.19-.7,.91-1.12,1.61-.93,.15,.04,15.5,4.05,24.03-.25,.65-.33,1.44-.07,1.77,.58,.33,.65,.07,1.44-.58,1.77-3.42,1.72-7.67,2.28-11.74,2.28Z"/></g><path class="cls-4" d="M233.77,82.07c-3.73,8.23-15.23,17.63-32.08,26.77-19.18,10.41-45.29,20.07-74.76,27.75-28.1,7.32-54.61,11.66-75.93,12.24-13.89,.38-25.57-.66-34.07-3.09-8.28-2.37-13.53-6.07-14.84-11.08-2.21-8.48,4.99-17.68,20.12-27.42,7.47-4.81,16.87-9.76,28.02-14.82-.69,1.87-1.31,3.76-1.86,5.69-.18,.62-.35,1.24-.5,1.87-.34,1.31-.64,2.63-.91,3.96-11.88,8.22-18.2,16.51-16.42,23.32,1.39,5.33,7.56,9.04,17.09,11.06,17.55,3.71,46.49,1.26,77.95-6.94,33.43-8.71,60.99-21.68,73.61-34.14,5.71-5.63,8.36-11.06,7.13-15.77-1.61-6.19-9.66-10.19-21.92-11.89-.34-.41-.68-.82-1.03-1.22-.65-.76-1.32-1.5-2-2.23-1.86-2-3.84-3.91-5.9-5.71,19.99-1.43,36.44-.29,46.96,3.36,6.84,2.37,11.17,5.8,12.34,10.29,.65,2.5,.29,5.18-.99,8.01Z"/><g class="cls-3"><path class="cls-8" d="M233.77,82.07c-3.73,8.23-15.23,17.63-32.08,26.77-19.18,10.41-45.29,20.07-74.76,27.75-28.1,7.32-54.61,11.66-75.93,12.24-13.89,.38-25.57-.66-34.07-3.09-8.28-2.37-13.53-6.07-14.84-11.08-2.21-8.48,4.99-17.68,20.12-27.42-15.45,21.49-30.36,57.56,106.02,24.03,102.67-25.24,97.44-58.88,93.43-66.07,6.84,2.37,11.94,4.37,13.1,8.85,.65,2.5,.29,5.18-.99,8.01Z"/></g><g class="cls-2"><path class="cls-1" d="M233.77,82.07c-3.43-19.64-39.77-17.35-52.4-15.94-1.86-2-3.84-3.91-5.9-5.71,32.98-2.35,56.33,2.27,59.3,13.64,.65,2.5,.29,5.18-.99,8.01Z"/></g><g class="cls-2"><path class="cls-1" d="M50.23,92.43c-.69,1.87-1.31,3.76-1.86,5.69-.18,.62-.35,1.24-.5,1.87-14.52,7.16-51.37,27.93-30.94,45.76-8.28-2.37-13.53-6.07-14.84-11.08-3.3-12.68,14.39-26.92,48.14-42.24Z"/></g><path class="cls-8" d="M45.38,150.61c-26.43,0-42.31-5.45-44.92-15.51-3.44-13.2,12.61-27.66,49.08-44.21,.62-.28,1.35-.16,1.85,.3,.5,.46,.67,1.18,.43,1.83-.66,1.79-1.27,3.66-1.82,5.57-.54,1.88-1,3.8-1.39,5.7-.09,.43-.34,.81-.7,1.06-11.67,8.07-17.26,15.7-15.75,21.5,1.48,5.68,9.41,8.48,15.8,9.83,17.49,3.7,46.34,1.12,77.17-6.92,32.43-8.45,60.34-21.36,72.85-33.7,3.76-3.71,7.97-9.17,6.68-14.14-1.36-5.21-8.64-8.99-20.51-10.64-.42-.06-.8-.27-1.07-.6-.33-.4-.67-.8-1-1.19-2.37-2.75-4.98-5.37-7.74-7.77-.52-.45-.71-1.16-.49-1.81,.22-.65,.8-1.1,1.48-1.15,35.67-2.54,57.92,2.89,61.06,14.91,2.69,10.34-9.35,23.37-33.9,36.69h0c-19.28,10.47-45.26,20.12-75.14,27.9-28.65,7.46-55.04,11.72-76.31,12.3-1.94,.05-3.83,.08-5.66,.08Zm1.98-54.99c-15.24,7.13-26.66,13.92-33.99,20.21-7.83,6.72-11.07,12.92-9.64,18.42,2.14,8.23,17.64,12.98,41.83,12.98,1.75,0,3.55-.02,5.39-.08,21.02-.58,47.15-4.79,75.55-12.19,29.61-7.71,55.33-17.26,74.38-27.6h0c22.39-12.15,34.44-24.43,32.24-32.87-2.5-9.58-22.89-14.33-53.59-12.63,1.79,1.73,3.51,3.53,5.12,5.4,.21,.25,.42,.49,.63,.74,13.12,1.93,20.95,6.44,22.67,13.05,1.36,5.24-1.19,11.1-7.58,17.4-13.1,12.93-40.91,25.85-74.38,34.57-31.32,8.16-60.75,10.76-78.73,6.95-10.51-2.22-16.86-6.47-18.37-12.29-1.89-7.27,3.82-15.82,16.54-24.75,.37-1.76,.81-3.54,1.31-5.29,.2-.68,.4-1.36,.61-2.04Z"/></g></svg>